<?xml version="1.0" encoding="iso-8859-1"?>
<svg version="1.1" viewBox="0.0 0.0 854.1338582677165 647.8608923884515" fill="none" stroke="none" stroke-linecap="square" stroke-miterlimit="10" xmlns:xlink="http://www.w3.org/1999/xlink" xmlns="http://www.w3.org/2000/svg"><clipPath id="p.0"><path d="m0 0l854.13385 0l0 647.8609l-854.13385 0l0 -647.8609z" clip-rule="nonzero"/></clipPath><g clip-path="url(#p.0)"><path fill="#000000" fill-opacity="0.0" d="m0 0l854.13385 0l0 647.8609l-854.13385 0z" fill-rule="evenodd"/><path fill="#000000" fill-opacity="0.0" d="m16.800526 13.406824l821.8898 0l0 620.063l-821.8898 0z" fill-rule="evenodd"/><path stroke="#000000" stroke-width="24.0" stroke-linejoin="round" stroke-linecap="butt" d="m16.800526 13.406824l821.8898 0l0 620.063l-821.8898 0z" fill-rule="evenodd"/><path fill="#000000" d="m568.6772 73.7769l0 0c0 -12.419884 10.674622 -22.488186 23.84253 -22.488186l0 0c6.3234253 0 12.387817 2.3692818 16.859192 6.5866356c4.4713135 4.217354 6.9832764 9.937317 6.9832764 15.90155l0 0c0 12.419884 -10.674622 22.48819 -23.842468 22.48819l0 0c-13.167908 0 -23.84253 -10.068306 -23.84253 -22.48819z" fill-rule="evenodd"/><path stroke="#000000" stroke-width="24.0" stroke-linejoin="round" stroke-linecap="butt" d="m568.6772 73.7769l0 0c0 -12.419884 10.674622 -22.488186 23.84253 -22.488186l0 0c6.3234253 0 12.387817 2.3692818 16.859192 6.5866356c4.4713135 4.217354 6.9832764 9.937317 6.9832764 15.90155l0 0c0 12.419884 -10.674622 22.48819 -23.842468 22.48819l0 0c-13.167908 0 -23.84253 -10.068306 -23.84253 -22.48819z" fill-rule="evenodd"/><path fill="#000000" d="m656.6627 73.7769l0 0c0 -12.419884 10.674683 -22.488186 23.84253 -22.488186l0 0c6.3234253 0 12.387878 2.3692818 16.859192 6.5866356c4.4713745 4.217354 6.9833374 9.937317 6.9833374 15.90155l0 0c0 12.419884 -10.674683 22.48819 -23.84253 22.48819l0 0c-13.167847 0 -23.84253 -10.068306 -23.84253 -22.48819z" fill-rule="evenodd"/><path stroke="#000000" stroke-width="24.0" stroke-linejoin="round" stroke-linecap="butt" d="m656.6627 73.7769l0 0c0 -12.419884 10.674683 -22.488186 23.84253 -22.488186l0 0c6.3234253 0 12.387878 2.3692818 16.859192 6.5866356c4.4713745 4.217354 6.9833374 9.937317 6.9833374 15.90155l0 0c0 12.419884 -10.674683 22.48819 -23.84253 22.48819l0 0c-13.167847 0 -23.84253 -10.068306 -23.84253 -22.48819z" fill-rule="evenodd"/><path fill="#000000" d="m744.6483 73.7769l0 0c0 -12.419884 10.674622 -22.488186 23.842468 -22.488186l0 0c6.3234863 0 12.387878 2.3692818 16.859253 6.5866356c4.4713135 4.217354 6.9832764 9.937317 6.9832764 15.90155l0 0c0 12.419884 -10.674622 22.48819 -23.84253 22.48819l0 0c-13.167847 0 -23.842468 -10.068306 -23.842468 -22.48819z" fill-rule="evenodd"/><path stroke="#000000" stroke-width="24.0" stroke-linejoin="round" stroke-linecap="butt" d="m744.6483 73.7769l0 0c0 -12.419884 10.674622 -22.488186 23.842468 -22.488186l0 0c6.3234863 0 12.387878 2.3692818 16.859253 6.5866356c4.4713135 4.217354 6.9832764 9.937317 6.9832764 15.90155l0 0c0 12.419884 -10.674622 22.48819 -23.84253 22.48819l0 0c-13.167847 0 -23.842468 -10.068306 -23.842468 -22.48819z" fill-rule="evenodd"/></g></svg>
