<?xml version="1.0" encoding="iso-8859-1"?>
<svg version="1.1" viewBox="0.0 0.0 960.0 720.0" fill="none" stroke="none" stroke-linecap="square" stroke-miterlimit="10" xmlns:xlink="http://www.w3.org/1999/xlink" xmlns="http://www.w3.org/2000/svg"><clipPath id="p.0"><path d="m0 0l960.0 0l0 720.0l-960.0 0l0 -720.0z" clip-rule="nonzero"/></clipPath><g clip-path="url(#p.0)"><path fill="#000000" fill-opacity="0.0" d="m0 0l960.0 0l0 720.0l-960.0 0z" fill-rule="evenodd"/><path fill="#000000" d="m191.28258 147.49606l593.0079 0l0 425.0079l-593.0079 0z" fill-rule="evenodd"/><path stroke="#000000" stroke-width="1.0" stroke-linejoin="round" stroke-linecap="butt" d="m191.28258 147.49606l593.0079 0l0 425.0079l-593.0079 0z" fill-rule="evenodd"/><path fill="#ffff00" d="m353.29132 443.03586l-88.79068 118.03055l0 -78.68625l29.597473 -39.3443l-29.597473 -39.3443l0 -78.68625z" fill-rule="evenodd"/><path stroke="#000000" stroke-width="1.0" stroke-linejoin="round" stroke-linecap="butt" d="m353.29132 443.03586l-88.79068 118.03055l0 -78.68625l29.597473 -39.3443l-29.597473 -39.3443l0 -78.68625z" fill-rule="evenodd"/><path fill="#ffff00" d="m366.7025 506.8703l113.29538 0l0 39.27478l-113.29538 0z" fill-rule="evenodd"/><path stroke="#000000" stroke-width="1.0" stroke-linejoin="round" stroke-linecap="butt" d="m366.7025 506.8703l113.29538 0l0 39.27478l-113.29538 0z" fill-rule="evenodd"/></g></svg>

