<?xml version="1.0" encoding="iso-8859-1"?>
<svg version="1.1" viewBox="0.0 0.0 960.0 720.0" fill="none" stroke="none" stroke-linecap="square" stroke-miterlimit="10" xmlns:xlink="http://www.w3.org/1999/xlink" xmlns="http://www.w3.org/2000/svg"><clipPath id="p.0"><path d="m0 0l960.0 0l0 720.0l-960.0 0l0 -720.0z" clip-rule="nonzero"/></clipPath><g clip-path="url(#p.0)"><path fill="#000000" fill-opacity="0.0" d="m0 0l960.0 0l0 720.0l-960.0 0z" fill-rule="evenodd"/><path fill="#cfe2f3" d="m216.61841 360.0l0 0c0 -42.73477 116.78006 -77.37814 260.83557 -77.37814l0 0c144.05554 0 260.83557 34.64337 260.83557 77.37814l0 0c0 42.73477 -116.78003 77.37814 -260.83557 77.37814l0 0c-144.05551 0 -260.83557 -34.64337 -260.83557 -77.37814zm38.68907 0c0 21.36737 99.45839 38.689056 222.1465 38.689056c122.68817 0 222.14655 -17.321686 222.14655 -38.689056l0 0c0 -21.36737 -99.458374 -38.689056 -222.14655 -38.689056l0 0c-122.68811 0 -222.1465 17.321686 -222.1465 38.689056z" fill-rule="evenodd"/><path stroke="#000000" stroke-width="1.0" stroke-linejoin="round" stroke-linecap="butt" d="m216.61841 360.0l0 0c0 -42.73477 116.78006 -77.37814 260.83557 -77.37814l0 0c144.05554 0 260.83557 34.64337 260.83557 77.37814l0 0c0 42.73477 -116.78003 77.37814 -260.83557 77.37814l0 0c-144.05551 0 -260.83557 -34.64337 -260.83557 -77.37814zm38.68907 0c0 21.36737 99.45839 38.689056 222.1465 38.689056c122.68817 0 222.14655 -17.321686 222.14655 -38.689056l0 0c0 -21.36737 -99.458374 -38.689056 -222.14655 -38.689056l0 0c-122.68811 0 -222.1465 17.321686 -222.1465 38.689056z" fill-rule="evenodd"/><path fill="#cfe2f3" d="m443.73514 360.0l0 0c0 -17.555481 15.096436 -31.787018 33.71884 -31.787018l0 0c8.94281 0 17.519348 3.3489685 23.842834 9.310211c6.323517 5.961212 9.876038 14.046356 9.876038 22.476807l0 0c0 17.555481 -15.096436 31.787018 -33.718872 31.787018l0 0c-18.622406 0 -33.71884 -14.231537 -33.71884 -31.787018z" fill-rule="evenodd"/><path stroke="#000000" stroke-width="1.0" stroke-linejoin="round" stroke-linecap="butt" d="m443.73514 360.0l0 0c0 -17.555481 15.096436 -31.787018 33.71884 -31.787018l0 0c8.94281 0 17.519348 3.3489685 23.842834 9.310211c6.323517 5.961212 9.876038 14.046356 9.876038 22.476807l0 0c0 17.555481 -15.096436 31.787018 -33.718872 31.787018l0 0c-18.622406 0 -33.71884 -14.231537 -33.71884 -31.787018z" fill-rule="evenodd"/><path fill="#000000" fill-opacity="0.0" d="m208.95412 296.48758l542.0918 127.05414" fill-rule="evenodd"/><path stroke="#000000" stroke-width="8.0" stroke-linejoin="round" stroke-linecap="butt" d="m208.95412 296.48758l542.0918 127.05414" fill-rule="evenodd"/></g></svg>
