<?xml version="1.0" encoding="utf-8"?>
<svg version="1.1" viewBox="0.0 0.0 370.12598425196853 337.26509186351706" fill="none" stroke="none" stroke-linecap="square" stroke-miterlimit="10" xmlns:xlink="http://www.w3.org/1999/xlink" xmlns="http://www.w3.org/2000/svg"><clipPath id="p.0"><path d="m0 0l370.12598 0l0 337.2651l-370.12598 0l0 -337.2651z" clip-rule="nonzero"/></clipPath><g clip-path="url(#p.0)"><path fill="#000000" fill-opacity="0.0" d="m0 0l370.12598 0l0 337.2651l-370.12598 0z" fill-rule="evenodd"/><path fill="#03203d" d="m16.799538 240.85736l150.89136 -202.47925l91.40785 237.91232z" fill-rule="evenodd"/><path stroke="#000000" stroke-width="1.0" stroke-linejoin="round" stroke-linecap="butt" d="m16.799538 240.85736l150.89136 -202.47925l91.40785 237.91232z" fill-rule="evenodd"/><path fill="#03203d" d="m127.10102 219.84349l150.89139 -202.47925l91.40784 237.91232z" fill-rule="evenodd"/><path stroke="#000000" stroke-width="1.0" stroke-linejoin="round" stroke-linecap="butt" d="m127.10102 219.84349l150.89139 -202.47925l91.40784 237.91232z" fill-rule="evenodd"/><path fill="#000000" fill-opacity="0.0" d="m9.217848E-4 263.7056l431.3386 0l0 95.33859l-431.3386 0z" fill-rule="evenodd"/><path fill="#e1341e" d="m38.8603 298.31873l-11.968752 0l0 -3.671875q0 -2.5625 -0.453125 -3.265625q-0.453125 -0.703125 -1.53125 -0.703125q-1.15625 0 -1.765625 0.953125q-0.59375 0.9375 -0.59375 2.875q0 2.46875 0.671875 3.734375q0.65625 1.25 3.640625 3.015625q8.609377 5.109375 10.843752 8.390625q2.234375 3.265625 2.234375 10.546875q0 5.296875 -1.25 7.8125q-1.234375 2.5 -4.78125 4.203125q-3.546877 1.703125 -8.265627 1.703125q-5.171875 0 -8.828125 -1.953125q-3.656249 -1.96875 -4.796874 -5.0q-1.125 -3.03125 -1.125 -8.59375l0 -3.25l11.968749 0l0 6.03125q0 2.78125 0.5 3.578125q0.515625 0.796875 1.796875 0.796875q1.28125 0 1.90625 -1.0q0.625 -1.015625 0.625 -3.0q0 -4.375 -1.1875 -5.734375q-1.21875 -1.34375 -6.03125 -4.484375q-4.796874 -3.1875 -6.359374 -4.625q-1.5625 -1.4375 -2.59375 -3.96875q-1.015625 -2.546875 -1.015625 -6.5q0 -5.6875 1.453125 -8.3125q1.453125 -2.640625 4.687499 -4.125q3.25 -1.484375 7.84375 -1.484375q5.015625 0 8.546877 1.625q3.53125 1.625 4.671875 4.09375q1.15625 2.453125 1.15625 8.359375l0 1.953125zm35.789536 -14.984375l-7.375 22.359375l8.078125 27.171875l-13.296875 0l-5.203125 -21.234375l0 21.234375l-12.890625 0l0 -49.53125l12.890625 0l0 19.25l5.71875 -19.25l12.078125 0zm25.185165 0l7.375 49.53125l-13.1875 0l-0.640625 -8.90625l-4.625 0l-0.765625 8.90625l-13.328125 0l6.546875 -49.53125l18.625 0zm-6.828125 31.84375q-0.96875 -8.40625 -1.953125 -20.765625q-1.953125 14.1875 -2.453125 20.765625l4.40625 0zm42.34887 -31.84375l0 9.90625l-7.6562424 0l0 39.625l-12.875 0l0 -39.625l-7.625 0l0 -9.90625l28.156242 0zm28.880615 0l0 9.90625l-7.65625 0l0 39.625l-12.875 0l0 -39.625l-7.625 0l0 -9.90625l28.15625 0zm25.17749 0l7.375 49.53125l-13.1875 0l-0.640625 -8.90625l-4.625 0l-0.765625 8.90625l-13.328125 0l6.546875 -49.53125l18.625 0zm-6.828125 31.84375q-0.96875 -8.40625 -1.953125 -20.765625q-1.953125 14.1875 -2.453125 20.765625l4.40625 0zm56.145752 -31.84375l0 49.53125l-11.265625 0l0 -33.4375l-4.484375 33.4375l-7.984375 0l-4.75 -32.671875l0 32.671875l-11.265625 0l0 -49.53125l16.6875 0q0.734375 4.46875 1.546875 10.53125l1.78125 12.59375l2.9375 -23.125l16.796875 0zm27.411804 0l7.375 49.53125l-13.1875 0l-0.640625 -8.90625l-4.625 0l-0.765625 8.90625l-13.328125 0l6.546875 -49.53125l18.625 0zm-6.828125 31.84375q-0.96875 -8.40625 -1.953125 -20.765625q-1.953125 14.1875 -2.453125 20.765625l4.40625 0zm16.395752 -31.84375l9.125 0q9.109375 0 12.34375 0.703125q3.234375 0.703125 5.265625 3.59375q2.03125 2.890625 2.03125 9.21875q0 5.78125 -1.4375 7.78125q-1.4375 1.984375 -5.65625 2.375q3.8125 0.953125 5.125 2.546875q1.328125 1.59375 1.640625 2.921875q0.328125 1.328125 0.328125 7.328125l0 13.0625l-11.96875 0l0 -16.453125q0 -3.984375 -0.625 -4.921875q-0.625 -0.953125 -3.28125 -0.953125l0 22.328125l-12.890625 0l0 -49.53125zm12.890625 8.46875l0 11.015625q2.171875 0 3.03125 -0.59375q0.875 -0.59375 0.875 -3.875l0 -2.71875q0 -2.359375 -0.84375 -3.09375q-0.828125 -0.734375 -3.0625 -0.734375zm43.1044 -8.46875l7.375 49.53125l-13.1875 0l-0.640625 -8.90625l-4.625 0l-0.765625 8.90625l-13.328125 0l6.546875 -49.53125l18.625 0zm-6.828125 31.84375q-0.96875 -8.40625 -1.953125 -20.765625q-1.953125 14.1875 -2.453125 20.765625l4.40625 0zm45.161377 -31.84375l0 49.53125l-11.296875 0l-6.6875 -22.515625l0 22.515625l-10.78125 0l0 -49.53125l10.78125 0l7.21875 22.296875l0 -22.296875l10.765625 0z" fill-rule="nonzero"/></g></svg>
