<?xml version="1.0" encoding="utf-8"?>
<svg version="1.1" viewBox="0.0 0.0 954.7139107611548 354.37270341207346" fill="none" stroke="none" stroke-linecap="square" stroke-miterlimit="10" xmlns:xlink="http://www.w3.org/1999/xlink" xmlns="http://www.w3.org/2000/svg"><clipPath id="p.0"><path d="m0 0l954.7139 0l0 354.3727l-954.7139 0l0 -354.3727z" clip-rule="nonzero"/></clipPath><g clip-path="url(#p.0)"><path fill="#ff9900" d="m0 0l954.7139 0l0 354.3727l-954.7139 0z" fill-rule="evenodd"/><path fill="#ff9900" d="m53.485565 292.81628l0 -121.35631l0 0c0 -67.02324 54.33306 -121.3563 121.35629 -121.3563l686.6831 0l0 -34.67323l69.346436 69.34645l-69.346436 69.34645l0 -34.673218l-686.6831 0l0 0c-28.724243 0 -52.009834 23.285599 -52.009834 52.009842l0 121.35631z" fill-rule="evenodd"/><path stroke="#000000" stroke-width="8.0" stroke-linejoin="round" stroke-linecap="butt" d="m53.485565 292.81628l0 -121.35631l0 0c0 -67.02324 54.33306 -121.3563 121.35629 -121.3563l686.6831 0l0 -34.67323l69.346436 69.34645l-69.346436 69.34645l0 -34.673218l-686.6831 0l0 0c-28.724243 0 -52.009834 23.285599 -52.009834 52.009842l0 121.35631z" fill-rule="evenodd"/><path fill="#000000" fill-opacity="0.0" d="m224.88452 140.75853l749.8268 0l0 171.30708l-749.8268 0z" fill-rule="evenodd"/><path fill="#000000" d="m259.8689 210.79353q-10.296875 0 -16.078125 -4.65625q-5.765625 -4.65625 -5.765625 -15.0l0 -19.6875l-3.140625 0l0 -12.875l25.78125 0l0 12.875l-2.515625 0l0 22.890625q0 1.546875 0.546875 2.125q0.546875 0.578125 1.796875 0.578125q1.25 0 1.796875 -0.578125q0.546875 -0.578125 0.546875 -2.125l0 -22.890625l-2.515625 0l0 -12.875l24.09375 0l0 12.875l-3.140625 0l0 19.6875q0 10.328125 -5.625 15.0q-5.609375 4.65625 -15.78125 4.65625zm60.293823 -52.21875l23.140625 0l0 12.875l-3.125 0l0 38.46875l-19.609375 0l-16.359375 -25.1875l0 12.3125l3.0 0l0 12.875l-23.140625 0l0 -12.875l3.140625 0l0 -25.59375l-3.140625 0l0 -12.875l24.625 0l14.46875 22.078125l0 -9.203125l-3.0 0l0 -12.875zm22.928375 38.46875l3.140625 0l0 -25.53125l-3.140625 0l0 -12.9375l26.734375 0q10.984375 0 17.546875 6.109375q6.5625 6.09375 6.5625 19.5625q0 13.46875 -6.5625 19.578125q-6.5625 6.09375 -17.546875 6.09375l-26.734375 0l0 -12.875zm25.609375 0q1.5625 0 2.265625 -0.734375q0.703125 -0.734375 0.703125 -2.59375l0 -18.921875q0 -3.34375 -2.96875 -3.34375l-2.34375 0l0 25.59375l2.34375 0zm24.766174 12.875l0 -12.875l3.140625 0l0 -25.59375l-3.140625 0l0 -12.875l44.890625 0l0 21.515625l-16.625 0l0 -8.640625l-5.0 0l0 7.296875l5.515625 0l0 9.75l-5.515625 0l0 8.546875l5.0 0l0 -9.890625l16.625 0l0 22.765625l-44.890625 0zm44.67383 -12.875l3.140625 0l0 -25.59375l-3.140625 0l0 -12.875l30.0625 0q8.53125 0 13.2031555 3.65625q4.6875 3.640625 4.6875 11.734375q0 4.53125 -1.890625 7.96875q-1.875 3.421875 -5.0469055 4.109375l-0.0625 -0.625q6.5625305 0.546875 6.5625305 8.109375l0 3.515625l2.953125 0l0 12.875l-22.453156 0l0 -16.015625q0 -2.109375 -0.515625 -2.96875q-0.5 -0.875 -1.703125 -1.21875q-1.1875 -0.34375 -2.53125 -0.34375l0 7.671875l4.140625 0l0 12.875l-27.40625 0l0 -12.875zm25.359375 -17.90625q1.25 0 1.796875 -0.578125q0.546875 -0.59375 0.546875 -2.140625l0 -2.25q0 -1.5625 -0.546875 -2.140625q-0.546875 -0.578125 -1.796875 -0.578125l-2.09375 0l0 7.6875l2.09375 0z" fill-rule="nonzero"/><path fill="#000000" d="m260.7439 285.99353q-12.359375 0 -19.171875 -6.375q-6.8125 -6.390625 -6.8125 -20.171875q0 -26.546875 25.859375 -26.546875q6.140625 0 11.4375 1.5q5.296875 1.5 8.53125 3.765625l0 17.625l-17.625 0l0 -5.796875q0 -1.875 -0.703125 -2.609375q-0.703125 -0.734375 -2.265625 -0.734375q-1.5625 0 -2.265625 0.734375q-0.703125 0.734375 -0.703125 2.609375l0 18.921875q0 1.859375 0.703125 2.59375q0.703125 0.734375 2.265625 0.734375q1.5625 0 2.265625 -0.734375q0.703125 -0.734375 0.703125 -2.59375l0 -6.375l17.625 0l0 18.203125q-3.296875 2.265625 -8.53125 3.765625q-5.234375 1.484375 -11.3125 1.484375zm44.487732 0q-12.0 0 -18.625 -6.390625q-6.609375 -6.390625 -6.609375 -20.15625q0 -13.765625 6.609375 -20.15625q6.625 -6.390625 18.625 -6.390625q12.0 0 18.609375 6.390625q6.625 6.390625 6.625 20.15625q0 13.765625 -6.625 20.15625q-6.609375 6.390625 -18.609375 6.390625zm0 -13.75q1.5625 0 2.265625 -0.734375q0.703125 -0.734375 0.703125 -2.59375l0 -18.921875q0 -1.875 -0.703125 -2.609375q-0.703125 -0.734375 -2.265625 -0.734375q-1.5625 0 -2.265625 0.734375q-0.703125 0.734375 -0.703125 2.609375l0 18.921875q0 1.90625 0.6875 2.625q0.703125 0.703125 2.28125 0.703125zm60.858063 -38.46875l23.140625 0l0 12.875l-3.125 0l0 38.46875l-19.609375 0l-16.359375 -25.1875l0 12.3125l3.0 0l0 12.875l-23.140625 0l0 -12.875l3.140625 0l0 -25.59375l-3.140625 0l0 -12.875l24.625 0l14.46875 22.078125l0 -9.203125l-3.0 0l0 -12.875zm43.647125 52.21875q-6.140625 0 -11.625 -1.046875q-5.484375 -1.0625 -9.28125 -2.796875l0 -14.53125l16.375 0q0 2.6875 0.5 3.1875q0.5 0.5 2.28125 0.5q1.53125 0 1.9375 -0.28125q0.40625 -0.28125 0.40625 -0.796875q0 -0.421875 -0.515625 -0.875q-0.515625 -0.453125 -2.265625 -1.109375l-5.390625 -1.875q-7.28125 -2.75 -10.59375 -6.640625q-3.296875 -3.890625 -3.296875 -10.4375q0 -8.015625 5.28125 -12.203125q5.28125 -4.1875 17.0625 -4.1875q5.59375 0 10.5625 1.140625q4.984375 1.125 8.71875 3.453125l0 13.234375l-15.125 0q0 -3.140625 -2.578125 -3.140625q-1.53125 0 -1.84375 0.1875q-0.3125 0.1875 -0.3125 0.640625q0 0.390625 0.546875 0.78125q0.546875 0.375 2.46875 1.0l5.453125 1.875q6.984375 2.375 10.28125 6.3125q3.3125 3.921875 3.3125 10.21875q0 8.59375 -5.796875 13.0q-5.78125 4.390625 -16.5625 4.390625zm70.855255 -34.453125l-13.375 0l0 -4.890625l-1.421875 0l0 25.59375l4.390625 0l0 12.875l-28.90625 0l0 -12.875l4.375 0l0 -25.59375l-1.40625 0l0 4.890625l-13.375 0l0 -17.765625l49.71875 0l0 17.765625zm-0.47195435 20.703125l3.140625 0l0 -25.59375l-3.140625 0l0 -12.875l30.0625 0q8.53125 0 13.203125 3.65625q4.6875 3.640625 4.6875 11.734375q0 4.53125 -1.890625 7.96875q-1.875 3.421875 -5.046875 4.109375l-0.0625 -0.625q6.5625 0.546875 6.5625 8.109375l0 3.515625l2.953125 0l0 12.875l-22.453125 0l0 -16.015625q0 -2.109375 -0.515625 -2.96875q-0.5 -0.875 -1.703125 -1.21875q-1.1875 -0.34375 -2.53125 -0.34375l0 7.671875l4.140625 0l0 12.875l-27.40625 0l0 -12.875zm25.359375 -17.90625q1.25 0 1.796875 -0.578125q0.546875 -0.59375 0.546875 -2.140625l0 -2.25q0 -1.5625 -0.546875 -2.140625q-0.546875 -0.578125 -1.796875 -0.578125l-2.09375 0l0 7.6875l2.09375 0zm47.369263 31.65625q-10.296875 0 -16.078125 -4.65625q-5.765625 -4.65625 -5.765625 -15.0l0 -19.6875l-3.140625 0l0 -12.875l25.78125 0l0 12.875l-2.515625 0l0 22.890625q0 1.546875 0.546875 2.125q0.546875 0.578125 1.796875 0.578125q1.25 0 1.796875 -0.578125q0.546875 -0.578125 0.546875 -2.125l0 -22.890625l-2.515625 0l0 -12.875l24.09375 0l0 12.875l-3.140625 0l0 19.6875q0 10.328125 -5.625 15.0q-5.609375 4.65625 -15.78125 4.65625zm49.80951 0q-12.359375 0 -19.171875 -6.375q-6.8125 -6.390625 -6.8125 -20.171875q0 -26.546875 25.859375 -26.546875q6.140625 0 11.4375 1.5q5.296875 1.5 8.53125 3.765625l0 17.625l-17.625 0l0 -5.796875q0 -1.875 -0.703125 -2.609375q-0.703125 -0.734375 -2.265625 -0.734375q-1.5625 0 -2.265625 0.734375q-0.703125 0.734375 -0.703125 2.609375l0 18.921875q0 1.859375 0.703125 2.59375q0.703125 0.734375 2.265625 0.734375q1.5625 0 2.265625 -0.734375q0.703125 -0.734375 0.703125 -2.59375l0 -6.375l17.625 0l0 18.203125q-3.296875 2.265625 -8.53125 3.765625q-5.234375 1.484375 -11.3125 1.484375zm68.97211 -34.453125l-13.375 0l0 -4.890625l-1.421875 0l0 25.59375l4.390625 0l0 12.875l-28.90625 0l0 -12.875l4.375 0l0 -25.59375l-1.40625 0l0 4.890625l-13.375 0l0 -17.765625l49.71875 0l0 17.765625zm-0.47192383 33.578125l0 -12.875l3.140625 0l0 -25.59375l-3.140625 0l0 -12.875l26.40625 0l0 12.875l-3.140625 0l0 25.59375l3.140625 0l0 12.875l-26.40625 0zm51.174927 0.875q-12.0 0 -18.625 -6.390625q-6.609375 -6.390625 -6.609375 -20.15625q0 -13.765625 6.609375 -20.15625q6.625 -6.390625 18.625 -6.390625q12.0 0 18.609375 6.390625q6.625 6.390625 6.625 20.15625q0 13.765625 -6.625 20.15625q-6.609375 6.390625 -18.609375 6.390625zm0 -13.75q1.5625 0 2.265625 -0.734375q0.703125 -0.734375 0.703125 -2.59375l0 -18.921875q0 -1.875 -0.703125 -2.609375q-0.703125 -0.734375 -2.265625 -0.734375q-1.5625 0 -2.265625 0.734375q-0.703125 0.734375 -0.703125 2.609375l0 18.921875q0 1.90625 0.6875 2.625q0.703125 0.703125 2.28125 0.703125zm60.858093 -38.46875l23.140625 0l0 12.875l-3.125 0l0 38.46875l-19.609375 0l-16.359375 -25.1875l0 12.3125l3.0 0l0 12.875l-23.140625 0l0 -12.875l3.140625 0l0 -25.59375l-3.140625 0l0 -12.875l24.625 0l14.46875 22.078125l0 -9.203125l-3.0 0l0 -12.875z" fill-rule="nonzero"/></g></svg>
