<?xml version="1.0" encoding="iso-8859-1"?>
<svg version="1.1" viewBox="0.0 0.0 958.50656167979 728.9580052493438" fill="none" stroke="none" stroke-linecap="square" stroke-miterlimit="10" xmlns:xlink="http://www.w3.org/1999/xlink" xmlns="http://www.w3.org/2000/svg"><clipPath id="p.0"><path d="m0 0l958.5066 0l0 728.958l-958.5066 0l0 -728.958z" clip-rule="nonzero"/></clipPath><g clip-path="url(#p.0)"><path fill="#000000" fill-opacity="0.0" d="m0 0l958.5066 0l0 728.958l-958.5066 0z" fill-rule="evenodd"/><path fill="#000000" d="m6.265301 271.7813l663.9962 -262.78433l-128.9768 231.39835l-283.7531 112.298645l118.400024 184.36261l-92.60443 166.1424z" fill-rule="evenodd"/><path stroke="#000000" stroke-width="1.0" stroke-linejoin="round" stroke-linecap="butt" d="m6.265301 271.7813l663.9962 -262.78433l-128.9768 231.39835l-283.7531 112.298645l118.400024 184.36261l-92.60443 166.1424z" fill-rule="evenodd"/><path fill="#a4c2f4" d="m250.54332 487.136l0 0c0 -98.092255 110.85536 -177.61172 247.60237 -177.61172l0 0c136.74701 0 247.60242 79.51947 247.60242 177.61172l0 0c0 98.092285 -110.85541 177.61176 -247.60242 177.61176l0 0c-136.74701 0 -247.60237 -79.51947 -247.60237 -177.61176z" fill-rule="evenodd"/><path stroke="#000000" stroke-width="1.0" stroke-linejoin="round" stroke-linecap="butt" d="m250.54332 487.136l0 0c0 -98.092255 110.85536 -177.61172 247.60237 -177.61172l0 0c136.74701 0 247.60242 79.51947 247.60242 177.61172l0 0c0 98.092285 -110.85541 177.61176 -247.60242 177.61176l0 0c-136.74701 0 -247.60237 -79.51947 -247.60237 -177.61176z" fill-rule="evenodd"/><path fill="#999999" d="m525.8289 126.94586l400.28455 0l0 268.2692l-400.28455 0z" fill-rule="evenodd"/><path stroke="#000000" stroke-width="1.0" stroke-linejoin="round" stroke-linecap="butt" d="m525.8289 126.94586l400.28455 0l0 268.2692l-400.28455 0z" fill-rule="evenodd"/></g></svg>
