<svg version="1.1" viewBox="0.0 0.0 346.36745406824144 246.39632545931758" fill="none" stroke="none" stroke-linecap="square" stroke-miterlimit="10" xmlns:xlink="http://www.w3.org/1999/xlink" xmlns="http://www.w3.org/2000/svg"><clipPath id="p.0"><path d="m0 0l346.36746 0l0 246.39633l-346.36746 0l0 -246.39633z" clip-rule="nonzero"/></clipPath><g clip-path="url(#p.0)"><path fill="#000000" fill-opacity="0.0" d="m0 0l346.36746 0l0 246.39633l-346.36746 0z" fill-rule="evenodd"/><path fill="#6aa84f" d="m0 137.32283l67.65354 -137.32283l67.65354 137.32283z" fill-rule="evenodd"/><path stroke="#000000" stroke-width="1.0" stroke-linejoin="round" stroke-linecap="butt" d="m0 137.32283l67.65354 -137.32283l67.65354 137.32283z" fill-rule="evenodd"/><path fill="#6aa84f" d="m45.44357 86.34646l0 0c0 -11.43708 8.813293 -20.708664 19.68504 -20.708664l0 0c5.2207947 0 10.22776 2.1818008 13.919426 6.0654297c3.691658 3.8836212 5.7656174 9.150955 5.7656174 14.643234l0 0c0 11.437073 -8.813293 20.708656 -19.685043 20.708656l0 0c-10.871746 0 -19.68504 -9.271584 -19.68504 -20.708656z" fill-rule="evenodd"/><path stroke="#000000" stroke-width="1.0" stroke-linejoin="round" stroke-linecap="butt" d="m45.44357 86.34646l0 0c0 -11.43708 8.813293 -20.708664 19.68504 -20.708664l0 0c5.2207947 0 10.22776 2.1818008 13.919426 6.0654297c3.691658 3.8836212 5.7656174 9.150955 5.7656174 14.643234l0 0c0 11.437073 -8.813293 20.708656 -19.685043 20.708656l0 0c-10.871746 0 -19.68504 -9.271584 -19.68504 -20.708656z" fill-rule="evenodd"/><path fill="#6aa84f" d="m222.52054 152.79921l-115.30616 -72.17587l121.72442 -60.729424l115.30617 72.175865z" fill-rule="evenodd"/><path fill="#000000" fill-opacity="0.0" d="m222.52054 152.79921l6.4182587 -132.9053" fill-rule="evenodd"/><path fill="#000000" fill-opacity="0.0" d="m222.52054 152.79921l-115.30616 -72.17587l121.72442 -60.729424l115.30617 72.175865z" fill-rule="evenodd"/><path stroke="#000000" stroke-width="1.0" stroke-linejoin="round" stroke-linecap="butt" d="m222.52054 152.79921l6.4182587 -132.9053" fill-rule="evenodd"/><path stroke="#000000" stroke-width="1.0" stroke-linejoin="round" stroke-linecap="butt" d="m222.52054 152.79921l-115.30616 -72.17587l121.72442 -60.729424l115.30617 72.175865z" fill-rule="evenodd"/><path fill="#6aa84f" d="m184.12329 173.65936l118.80316 -61.039368l14.425201 132.7874z" fill-rule="evenodd"/><path stroke="#000000" stroke-width="1.0" stroke-linejoin="round" stroke-linecap="butt" d="m184.12329 173.65936l118.80316 -61.039368l14.425201 132.7874z" fill-rule="evenodd"/></g></svg>