<svg version="1.1" viewBox="0.0 0.0 202.18372703412072 160.13385826771653" fill="none" stroke="none" stroke-linecap="square" stroke-miterlimit="10" xmlns:xlink="http://www.w3.org/1999/xlink" xmlns="http://www.w3.org/2000/svg"><clipPath id="p.0"><path d="m0 0l202.18373 0l0 160.13387l-202.18373 0l0 -160.13387z" clip-rule="nonzero"/></clipPath><g clip-path="url(#p.0)"><path fill="#000000" fill-opacity="0.0" d="m0 0l202.18373 0l0 160.13387l-202.18373 0z" fill-rule="evenodd"/><path fill="#cbb473" d="m122.19598 125.89298l0 0c-29.014519 -17.612228 -48.12879 -39.158966 -42.692917 -48.125984l0 0c2.6103973 -4.306114 10.6488495 -5.07605 22.346985 -2.140442c11.698135 2.935608 26.097702 9.336296 40.030968 17.793983l0 0c29.014526 17.612236 48.128784 39.158974 42.692917 48.125984l0 0c-2.6103973 4.306122 -10.6488495 5.076065 -22.346985 2.140442c-11.698135 -2.935608 -26.097702 -9.336288 -40.030968 -17.793983z" fill-rule="evenodd"/><path stroke="#a76230" stroke-width="12.0" stroke-linejoin="round" stroke-linecap="butt" d="m122.19598 125.89298l0 0c-29.014519 -17.612228 -48.12879 -39.158966 -42.692917 -48.125984l0 0c2.6103973 -4.306114 10.6488495 -5.07605 22.346985 -2.140442c11.698135 2.935608 26.097702 9.336296 40.030968 17.793983l0 0c29.014526 17.612236 48.128784 39.158974 42.692917 48.125984l0 0c-2.6103973 4.306122 -10.6488495 5.076065 -22.346985 2.140442c-11.698135 -2.935608 -26.097702 -9.336288 -40.030968 -17.793983z" fill-rule="evenodd"/><path fill="#cbb473" d="m14.018373 70.37008l0 0c0 -33.937244 26.298866 -61.44882 58.740158 -61.44882l0 0c15.578857 0 30.519646 6.4740534 41.53556 17.997944c11.015923 11.52389 17.204597 27.153635 17.204597 43.450874l0 0c0 33.93725 -26.298866 61.448814 -58.740158 61.448814l0 0c-32.44129 0 -58.740158 -27.511566 -58.740158 -61.448814z" fill-rule="evenodd"/><path stroke="#a76230" stroke-width="24.0" stroke-linejoin="round" stroke-linecap="butt" d="m14.018373 70.37008l0 0c0 -33.937244 26.298866 -61.44882 58.740158 -61.44882l0 0c15.578857 0 30.519646 6.4740534 41.53556 17.997944c11.015923 11.52389 17.204597 27.153635 17.204597 43.450874l0 0c0 33.93725 -26.298866 61.448814 -58.740158 61.448814l0 0c-32.44129 0 -58.740158 -27.511566 -58.740158 -61.448814z" fill-rule="evenodd"/></g></svg>
