<svg version="1.1" viewBox="0.0 0.0 203.03937007874015 118.3490813648294" fill="none" stroke="none" stroke-linecap="square" stroke-miterlimit="10" xmlns:xlink="http://www.w3.org/1999/xlink" xmlns="http://www.w3.org/2000/svg"><clipPath id="p.0"><path d="m0 0l203.03937 0l0 118.34908l-203.03937 0l0 -118.34908z" clip-rule="nonzero"/></clipPath><g clip-path="url(#p.0)"><path fill="#000000" fill-opacity="0.0" d="m0 0l203.03937 0l0 118.34908l-203.03937 0z" fill-rule="evenodd"/><path fill="#000000" fill-opacity="0.0" d="m5.5984254 2.0944881l86.11024 0l0 116.34646l-86.11024 0z" fill-rule="evenodd"/><path fill="#bf9000" d="m57.567177 32.84761q7.890625 0 14.671875 1.359375q6.78125 1.34375 12.4375 3.453125l0 13.125q-2.21875 -1.25 -5.015625 -2.421875q-2.796875 -1.171875 -6.078125 -2.0625q-3.28125 -0.90625 -7.03125 -1.453125q-3.75 -0.546875 -7.890625 -0.546875q-5.15625 0 -8.984375 0.75q-3.828125 0.734375 -6.5625 1.984375q-2.734375 1.25 -4.5 2.90625q-1.75 1.65625 -2.765625 3.53125q-1.015625 1.875 -1.40625 3.828125q-0.390625 1.953125 -0.390625 3.796875q0 1.59375 0.328125 3.46875q0.34375 1.875 1.25 3.75q0.921875 1.875 2.5625 3.59375q1.640625 1.71875 4.28125 3.046875q2.640625 1.328125 6.34375 2.140625q3.71875 0.796875 8.828125 0.796875q2.578125 0 4.484375 -0.15625q1.921875 -0.15625 3.5 -0.421875q1.59375 -0.28125 2.96875 -0.671875q1.390625 -0.390625 2.875 -0.828125l0 -6.484375l-16.25 0l0 -11.75l30.75 0l0 27.421875q-2.890625 0.96875 -6.46875 1.78125q-3.578125 0.796875 -7.390625 1.359375q-3.796875 0.578125 -7.625 0.890625q-3.828125 0.3125 -7.234375 0.3125q-5.265625 0 -10.109375 -0.703125q-4.84375 -0.703125 -9.046875 -2.171875q-4.203125 -1.46875 -7.656252 -3.734375q-3.453125 -2.265625 -5.90625 -5.390625q-2.4375 -3.125 -3.78125 -7.171875q-1.34375 -4.046875 -1.34375 -9.078125q0 -5.0 1.40625 -9.0625q1.40625 -4.0625 3.921875 -7.1875q2.515625 -3.125 6.046875 -5.390625q3.546877 -2.265625 7.781252 -3.734375q4.234375 -1.46875 9.0625 -2.171875q4.828125 -0.703125 9.9375 -0.703125z" fill-rule="nonzero"/><path fill="#000000" fill-opacity="0.0" d="m77.59843 2.0944881l86.11024 0l0 116.34646l-86.11024 0z" fill-rule="evenodd"/><path fill="#bf9000" d="m164.4578 61.09761q0 6.90625 -2.546875 12.203125q-2.53125 5.296875 -7.265625 8.859375q-4.71875 3.546875 -11.46875 5.375q-6.734375 1.8125 -15.125 1.8125q-8.406242 0 -15.187492 -1.8125q-6.765625 -1.828125 -11.53125 -5.375q-4.765625 -3.5625 -7.34375 -8.859375q-2.578125 -5.296875 -2.578125 -12.203125q0 -6.921875 2.578125 -12.203125q2.578125 -5.296875 7.34375 -8.84375q4.765625 -3.5625 11.53125 -5.375q6.78125 -1.828125 15.187492 -1.828125q8.390625 0 15.125 1.828125q6.75 1.8125 11.46875 5.375q4.734375 3.546875 7.265625 8.84375q2.546875 5.28125 2.546875 12.203125zm-14.65625 0q0 -3.015625 -0.953125 -6.0q-0.953125 -2.984375 -3.40625 -5.359375q-2.4375 -2.390625 -6.65625 -3.875q-4.21875 -1.484375 -10.734375 -1.484375q-4.3749924 0 -7.7031174 0.6875q-3.3125 0.671875 -5.734375 1.890625q-2.421875 1.203125 -4.0625 2.828125q-1.640625 1.625 -2.625 3.484375q-0.96875 1.84375 -1.390625 3.859375q-0.40625 2.015625 -0.40625 3.96875q0 1.984375 0.40625 4.015625q0.421875 2.03125 1.390625 3.890625q0.984375 1.859375 2.625 3.46875q1.640625 1.59375 4.0625 2.78125q2.421875 1.1875 5.734375 1.875q3.328125 0.6875 7.7031174 0.6875q6.515625 0 10.734375 -1.484375q4.21875 -1.484375 6.65625 -3.859375q2.453125 -2.390625 3.40625 -5.375q0.953125 -3.0 0.953125 -6.0z" fill-rule="nonzero"/></g></svg>
