<svg version="1.1" viewBox="0.0 0.0 444.5223097112861 395.0236220472441" fill="none" stroke="none" stroke-linecap="square" stroke-miterlimit="10" xmlns:xlink="http://www.w3.org/1999/xlink" xmlns="http://www.w3.org/2000/svg"><clipPath id="p.0"><path d="m0 0l444.5223 0l0 395.02362l-444.5223 0l0 -395.02362z" clip-rule="nonzero"/></clipPath><g clip-path="url(#p.0)"><path fill="#000000" fill-opacity="0.0" d="m0 0l444.5223 0l0 395.02362l-444.5223 0z" fill-rule="evenodd"/><path fill="#ffe599" d="m14.629921 33.565784l0 0c0 -6.180319 5.0101376 -11.190456 11.190456 -11.190456l379.54034 0c2.9678955 0 5.8142395 1.1789913 7.912842 3.2776089c2.0986328 2.0986176 3.2776184 4.944954 3.2776184 7.9128475l0 339.0679c0 6.180298 -5.010132 11.19046 -11.19046 11.19046l-379.54034 0c-6.180319 0 -11.190456 -5.0101624 -11.190456 -11.19046z" fill-rule="evenodd"/><path stroke="#7f6000" stroke-width="8.0" stroke-linejoin="round" stroke-linecap="butt" d="m14.629921 33.565784l0 0c0 -6.180319 5.0101376 -11.190456 11.190456 -11.190456l379.54034 0c2.9678955 0 5.8142395 1.1789913 7.912842 3.2776089c2.0986328 2.0986176 3.2776184 4.944954 3.2776184 7.9128475l0 339.0679c0 6.180298 -5.010132 11.19046 -11.19046 11.19046l-379.54034 0c-6.180319 0 -11.190456 -5.0101624 -11.190456 -11.19046z" fill-rule="evenodd"/><path fill="#bf9000" d="m134.48842 178.73283l237.62556 0l0 148.32011c-118.8064 0 -118.8064 57.0661 -237.62556 28.53305zm19.577438 0l0 -19.228775l236.00262 0l0 149.25055c-8.970856 0 -17.954498 1.033783 -17.954498 1.033783l0 -131.05556zm18.401764 -19.228775l0 -18.76358l238.04724 0l0 148.78534c-10.223175 0 -20.44638 0.7753296 -20.44638 0.7753296l0 -130.79709z" fill-rule="evenodd"/><path fill="#000000" fill-opacity="0.0" d="m134.48842 178.73283l237.62556 0l0 148.32011c-118.8064 0 -118.8064 57.0661 -237.62556 28.53305zm19.577438 0l0 -19.228775l236.00262 0l0 149.25055c-8.970856 0 -17.954498 1.033783 -17.954498 1.033783m-199.64636 -150.28433l0 -18.76358l238.04724 0l0 148.78534c-10.223175 0 -20.44638 0.7753296 -20.44638 0.7753296" fill-rule="evenodd"/><path fill="#000000" fill-opacity="0.0" d="m134.48842 355.586c118.81917 28.53305 118.81917 -28.53305 237.62556 -28.53305l0 -17.264557c0 0 8.983643 -1.033783 17.954498 -1.033783l0 -18.45346c0 0 10.223206 -0.7753296 20.44638 -0.7753296l0 -148.78534l-238.04724 0l0 18.76358l-18.401764 0l0 19.228775l-19.577438 0z" fill-rule="evenodd"/><path stroke="#7f6000" stroke-width="8.0" stroke-linejoin="round" stroke-linecap="butt" d="m134.48842 178.73283l237.62556 0l0 148.32011c-118.8064 0 -118.8064 57.0661 -237.62556 28.53305zm19.577438 0l0 -19.228775l236.00262 0l0 149.25055c-8.970856 0 -17.954498 1.033783 -17.954498 1.033783m-199.64636 -150.28433l0 -18.76358l238.04724 0l0 148.78534c-10.223175 0 -20.44638 0.7753296 -20.44638 0.7753296" fill-rule="evenodd"/><path fill="#fff2cc" d="m168.31029 12.908136l94.5598 0l0 0c12.387573 0 22.429718 6.935709 22.429718 15.491339c0 8.55563 -10.042145 15.491337 -22.429718 15.491337l-94.5598 0l0 0c-12.3875885 0 -22.429703 -6.935707 -22.429703 -15.491337c0 -8.55563 10.042114 -15.491339 22.429703 -15.491339z" fill-rule="evenodd"/><path stroke="#7f6000" stroke-width="4.0" stroke-linejoin="round" stroke-linecap="butt" d="m168.31029 12.908136l94.5598 0l0 0c12.387573 0 22.429718 6.935709 22.429718 15.491339c0 8.55563 -10.042145 15.491337 -22.429718 15.491337l-94.5598 0l0 0c-12.3875885 0 -22.429703 -6.935707 -22.429703 -15.491337c0 -8.55563 10.042114 -15.491339 22.429703 -15.491339z" fill-rule="evenodd"/></g></svg>
