<svg version="1.1" viewBox="0.0 0.0 497.755905511811 100.0" fill="none" stroke="none" stroke-linecap="square" stroke-miterlimit="10" xmlns:xlink="http://www.w3.org/1999/xlink" xmlns="http://www.w3.org/2000/svg"><clipPath id="p.0"><path d="m0 0l497.75592 0l0 100.0l-497.75592 0l0 -100.0z" clip-rule="nonzero"/></clipPath><g clip-path="url(#p.0)"><path fill="#000000" fill-opacity="0.0" d="m0 0l497.75592 0l0 100.0l-497.75592 0z" fill-rule="evenodd"/><path fill="#000000" fill-opacity="0.0" d="m13.28084 18.48819l481.82675 0l0 59.779526l-481.82675 0z" fill-rule="evenodd"/><path fill="#bf9000" d="m31.84334 45.660065l12.374998 -8.53125l8.09375 0l-15.0625 10.71875l16.0625 11.640625l-8.796875 0l-12.671873 -9.296875l0 9.296875l-6.0625 0l0 -22.359375l6.0625 0l0 8.53125zm36.20479 4.46875l0 -3.546875l16.859375 -7.484375l0 5.1875l-9.828125 4.078125l9.828125 4.03125l0 5.1875l-16.859375 -7.453125zm41.419815 -4.46875l12.375 -8.53125l8.09375 0l-15.0625 10.71875l16.0625 11.640625l-8.796875 0l-12.671875 -9.296875l0 9.296875l-6.0625 0l0 -22.359375l6.0625 0l0 8.53125zm47.64229 5.0625l0 6.40625l-4.765625 0l0 -6.40625l-6.40625 0l0 -4.75l6.40625 0l0 -6.421875l4.765625 0l0 6.421875l6.390625 0l0 4.75l-6.390625 0zm24.879944 8.765625l0 -22.359375l6.03125 0l0 22.359375l-6.03125 0zm24.268799 -9.359375l0 -3.546875l16.859375 -7.484375l0 5.1875l-9.828125 4.078125l9.828125 4.03125l0 5.1875l-16.859375 -7.453125zm49.98233 -2.5625q1.6875 0.375 2.875 0.90625q1.1875 0.515625 1.921875 1.21875q0.75 0.6875 1.09375 1.546875q0.34375 0.84375 0.34375 1.859375q0 1.75 -0.953125 3.078125q-0.953125 1.3125 -2.640625 2.1875q-1.671875 0.859375 -3.9687653 1.296875q-2.296875 0.4375 -4.96875 0.4375q-1.78125 0 -3.28125 -0.15625q-1.5 -0.15625 -2.765625 -0.40625q-1.25 -0.234375 -2.3125 -0.53125q-1.0625 -0.3125 -1.96875 -0.625l0 -5.34375q1.0 0.53125 2.265625 0.953125q1.265625 0.421875 2.609375 0.734375q1.34375 0.296875 2.703125 0.453125q1.375 0.140625 2.59375 0.140625q2.203125 0 3.515625 -0.265625q1.328125 -0.265625 2.015625 -0.671875q0.68751526 -0.421875 0.89064026 -0.890625q0.203125 -0.484375 0.203125 -0.90625q0 -0.703125 -0.46876526 -1.21875q-0.46875 -0.53125 -1.640625 -0.875q-1.15625 -0.34375 -3.140625 -0.515625q-1.984375 -0.171875 -5.0 -0.1875l0 -4.421875q2.75 0 4.5625 -0.109375q1.8125 -0.125 2.890625 -0.359375q1.09375 -0.25 1.546875 -0.640625q0.453125 -0.390625 0.453125 -0.953125q0 -0.1875 -0.0625 -0.390625q-0.0625 -0.21875 -0.265625 -0.4375q-0.1875 -0.234375 -0.5625 -0.4375q-0.375 -0.21875 -1.03125 -0.375q-0.640625 -0.171875 -1.609375 -0.265625q-0.953125 -0.09375 -2.296875 -0.09375q-1.265625 0 -2.578125 0.125q-1.3125 0.125 -2.578125 0.390625q-1.25 0.265625 -2.421875 0.640625q-1.171875 0.359375 -2.15625 0.875l0 -5.34375q2.21875 -0.734375 4.734375 -1.078125q2.515625 -0.34375 5.0 -0.34375q2.421875 0 4.578125 0.328125q2.1562653 0.3125 3.7656403 1.03125q1.625 0.703125 2.5625 1.84375q0.953125 1.125 0.953125 2.734375q0 0.859375 -0.3125 1.640625q-0.296875 0.765625 -0.953125 1.421875q-0.640625 0.640625 -1.671875 1.15625q-1.015625 0.5 -2.46875 0.84375zm27.897552 3.1875l0.53125 -4.71875l-4.125 3.015625l-1.78125 -3.015625l4.703125 -2.078125l-4.671875 -2.0625l1.75 -3.046875l4.125 3.046875l-0.53125 -4.765625l3.5 0l-0.546875 4.703125l4.078125 -2.984375l1.734375 3.046875l-4.640625 2.0625l4.671875 2.046875l-1.765625 3.015625l-4.078125 -2.953125l0.546875 4.6875l-3.5 0zm47.087128 -7.328125q-0.625 -0.3125 -1.671875 -0.703125q-1.03125 -0.390625 -2.359375 -0.734375q-1.3125 -0.359375 -2.859375 -0.59375q-1.546875 -0.234375 -3.171875 -0.234375q-1.3125 0 -2.234375 0.09375q-0.90625 0.078125 -1.53125 0.203125q-0.625 0.125 -1.0 0.296875q-0.359375 0.171875 -0.5625 0.359375q-0.1875 0.171875 -0.25 0.359375q-0.0625 0.171875 -0.0625 0.3125q0 0.5 0.484375 0.875q0.5 0.359375 1.34375 0.640625q0.84375 0.28125 1.96875 0.53125q1.125 0.25 2.375 0.53125q1.265625 0.265625 2.609375 0.578125q1.34375 0.3125 2.609375 0.734375q1.265625 0.421875 2.375 0.984375q1.125 0.5625 1.96875 1.3125q0.859375 0.75 1.34375 1.734375q0.484375 0.96875 0.484375 2.21875q0 1.609375 -0.578125 2.765625q-0.5625 1.15625 -1.515625 1.953125q-0.953125 0.796875 -2.203125 1.28125q-1.25 0.484375 -2.625 0.734375q-1.375 0.265625 -2.78125 0.34375q-1.40625 0.09375 -2.671875 0.09375q-3.328125 0 -6.15625 -0.546875q-2.8125 -0.546875 -4.984375 -1.359375l0 -5.34375q2.234375 1.234375 5.078125 1.9375q2.859375 0.703125 6.125 0.703125q1.921875 0 3.125 -0.203125q1.21875 -0.203125 1.890625 -0.515625q0.6875 -0.328125 0.9375 -0.703125q0.25 -0.375 0.25 -0.71875q0 -0.53125 -0.5 -0.921875q-0.484375 -0.40625 -1.328125 -0.703125q-0.84375 -0.3125 -1.96875 -0.5625q-1.125 -0.25 -2.390625 -0.5q-1.25 -0.25 -2.59375 -0.546875q-1.328125 -0.296875 -2.59375 -0.6875q-1.265625 -0.40625 -2.390625 -0.921875q-1.109375 -0.53125 -1.96875 -1.25q-0.84375 -0.734375 -1.328125 -1.6875q-0.484375 -0.953125 -0.484375 -2.203125q0 -1.484375 0.515625 -2.546875q0.53125 -1.078125 1.40625 -1.828125q0.890625 -0.765625 2.046875 -1.234375q1.171875 -0.484375 2.453125 -0.734375q1.296875 -0.265625 2.609375 -0.359375q1.3125 -0.09375 2.5 -0.09375q1.3125 0 2.6875 0.125q1.375 0.125 2.703125 0.359375q1.328125 0.234375 2.578125 0.546875q1.25 0.3125 2.296875 0.65625l0 5.171875zm11.841309 4.9375q0 1.5 0.265625 2.78125q0.28125 1.28125 0.84375 2.453125q0.578125 1.171875 1.453125 2.28125q0.875 1.109375 2.078125 2.28125l-3.375 3.625q-1.5 -1.1875 -2.734375 -2.546875q-1.21875 -1.375 -2.109375 -3.0q-0.890625 -1.625 -1.375 -3.5625q-0.484375 -1.953125 -0.484375 -4.3125q0 -2.359375 0.484375 -4.296875q0.484375 -1.953125 1.375 -3.578125q0.890625 -1.640625 2.109375 -3.0q1.234375 -1.359375 2.734375 -2.5625l3.375 3.640625q-1.203125 1.171875 -2.078125 2.28125q-0.875 1.09375 -1.453125 2.265625q-0.5625 1.171875 -0.84375 2.453125q-0.265625 1.28125 -0.265625 2.796875zm29.722168 -2.703125l12.375 -8.53125l8.09375 0l-15.0625 10.71875l16.0625 11.640625l-8.796875 0l-12.671875 -9.296875l0 9.296875l-6.0625 0l0 -22.359375l6.0625 0l0 8.53125zm47.642273 5.0625l0 6.40625l-4.765625 0l0 -6.40625l-6.40625 0l0 -4.75l6.40625 0l0 -6.421875l4.765625 0l0 6.421875l6.390625 0l0 4.75l-6.390625 0zm24.879944 8.765625l0 -22.359375l6.03125 0l0 22.359375l-6.03125 0zm29.690674 -11.125q0 -1.515625 -0.28125 -2.796875q-0.265625 -1.28125 -0.84375 -2.453125q-0.5625 -1.171875 -1.4375 -2.265625q-0.859375 -1.109375 -2.0625 -2.28125l2.03125 -2.203125l0 -0.03125l1.328125 -1.40625q1.484375 1.125 2.671875 2.5q0.890625 1.0 1.625 2.140625q0.734375 1.140625 1.25 2.4375q0.53125 1.296875 0.828125 2.78125q0.296875 1.46875 0.328125 3.171875l0 0.40625q0 1.78125 -0.28125 3.328125q-0.28125 1.546875 -0.8125 2.890625q-0.515625 1.34375 -1.265625 2.515625q-0.75 1.15625 -1.671875 2.203125q-0.546875 0.609375 -1.140625 1.171875q-0.59375 0.5625 -1.21875 1.078125q-0.078125 0.046875 -0.15625 0.09375q-0.078125 0.0625 -0.15625 0.140625l-1.328125 -1.40625l0 -0.03125l-2.03125 -2.1875q1.203125 -1.171875 2.0625 -2.28125q0.875 -1.109375 1.4375 -2.28125q0.578125 -1.171875 0.84375 -2.453125q0.28125 -1.28125 0.28125 -2.78125z" fill-rule="nonzero"/></g></svg>