<svg version="1.1" viewBox="0.0 0.0 387.31233595800524 100.0" fill="none" stroke="none" stroke-linecap="square" stroke-miterlimit="10" xmlns:xlink="http://www.w3.org/1999/xlink" xmlns="http://www.w3.org/2000/svg"><clipPath id="p.0"><path d="m0 0l387.31235 0l0 100.0l-387.31235 0l0 -100.0z" clip-rule="nonzero"/></clipPath><g clip-path="url(#p.0)"><path fill="#000000" fill-opacity="0.0" d="m0 0l387.31235 0l0 100.0l-387.31235 0z" fill-rule="evenodd"/><path fill="#000000" fill-opacity="0.0" d="m117.88976 42.367455l270.2047 0l0 42.015747l-270.2047 0z" fill-rule="evenodd"/><path fill="#bf9000" d="m137.12415 62.865578l5.9375 6.421875l-4.046875 0l-3.921875 -4.21875l-3.890625 4.21875l-4.0468826 0l5.9218826 -6.421875l-5.6250076 -6.09375l4.0468826 0l3.59375 3.921875l3.625 -3.921875l4.046875 0l-5.640625 6.09375zm20.854095 1.515625l0 3.578125l-2.671875 0l0 -3.578125l-3.578125 0l0 -2.65625l3.578125 0l0 -3.59375l2.671875 0l0 3.59375l3.578125 0l0 2.65625l-3.578125 0zm15.509888 4.90625l0 -10.015625l-3.359375 1.046875l0 -2.515625l3.359375 -1.03125l3.359375 0l0 12.515625l-3.359375 0zm14.375198 0l0 -12.515625l3.390625 0l0 12.515625l-3.390625 0zm13.218582 -9.84375q-0.59375 0 -1.0625 0.046875q-0.46875 0.046875 -0.796875 0.21875q-0.328125 0.171875 -0.5 0.515625q-0.171875 0.328125 -0.171875 0.921875l0 0.46875l9.4375 0l0 2.671875l-9.4375 0l0 5.0l-3.390625 0l0 -8.421875q0 -0.953125 0.28125 -1.71875q0.296875 -0.765625 0.96875 -1.28125q0.671875 -0.53125 1.78125 -0.8125q1.125 -0.28125 2.78125 -0.28125l7.453125 0l0 2.671875l-7.34375 0zm25.533936 3.421875l5.9375 6.421875l-4.046875 0l-3.921875 -4.21875l-3.890625 4.21875l-4.046875 0l5.921875 -6.421875l-5.625 -6.09375l4.046875 0l3.59375 3.921875l3.625 -3.921875l4.046875 0l-5.640625 6.09375zm18.55722 -6.09375l0 1.375q0.4375 -0.28125 0.953125 -0.578125q0.53125 -0.3125 1.140625 -0.546875q0.625 -0.25 1.328125 -0.40625q0.703125 -0.15625 1.53125 -0.15625q0.796875 0 1.390625 0.171875q0.609375 0.15625 1.046875 0.4375q0.453125 0.265625 0.75 0.59375q0.3125 0.328125 0.546875 0.65625q0.640625 -0.421875 1.265625 -0.765625q0.640625 -0.34375 1.265625 -0.59375q0.640625 -0.25 1.296875 -0.375q0.671875 -0.125 1.390625 -0.125q1.15625 0 2.0625 0.3125q0.90625 0.3125 1.53125 0.875q0.625 0.546875 0.953125 1.3125q0.34375 0.75 0.34375 1.59375l0 8.734375l-3.375 0l0 -8.25q0 -0.5 -0.15625 -0.859375q-0.15625 -0.359375 -0.421875 -0.578125q-0.25 -0.234375 -0.609375 -0.34375q-0.34375 -0.109375 -0.734375 -0.109375q-1.828125 0 -4.15625 1.625q0.03125 0.15625 0.03125 0.375q0.015625 0.203125 0.015625 0.421875l0 7.71875l-3.375 0l0 -8.3125q0 -0.5 -0.15625 -0.84375q-0.15625 -0.359375 -0.421875 -0.578125q-0.265625 -0.21875 -0.625 -0.3125q-0.34375 -0.09375 -0.734375 -0.09375q-0.46875 0 -1.0 0.140625q-0.53125 0.125 -1.0625 0.375q-0.53125 0.25 -1.046875 0.59375q-0.515625 0.328125 -0.96875 0.71875l0 8.3125l-3.390625 0l0 -12.515625l3.390625 0zm38.856537 6.265625q0 1.609375 -0.59375 2.84375q-0.59375 1.234375 -1.703125 2.0625q-1.09375 0.828125 -2.671875 1.265625q-1.5625 0.421875 -3.515625 0.421875q-1.96875 0 -3.546875 -0.421875q-1.578125 -0.4375 -2.6875 -1.265625q-1.109375 -0.828125 -1.71875 -2.0625q-0.59375 -1.234375 -0.59375 -2.84375q0 -1.609375 0.59375 -2.84375q0.609375 -1.234375 1.71875 -2.0625q1.109375 -0.828125 2.6875 -1.25q1.578125 -0.421875 3.546875 -0.421875q1.953125 0 3.515625 0.421875q1.578125 0.421875 2.671875 1.25q1.109375 0.828125 1.703125 2.0625q0.59375 1.234375 0.59375 2.84375zm-3.421875 0q0 -0.703125 -0.21875 -1.390625q-0.21875 -0.703125 -0.796875 -1.25q-0.5625 -0.5625 -1.546875 -0.90625q-0.984375 -0.34375 -2.5 -0.34375q-1.03125 0 -1.8125 0.15625q-0.765625 0.15625 -1.328125 0.4375q-0.5625 0.28125 -0.953125 0.65625q-0.375 0.375 -0.609375 0.8125q-0.21875 0.4375 -0.3125 0.90625q-0.09375 0.46875 -0.09375 0.921875q0 0.46875 0.09375 0.9375q0.09375 0.46875 0.3125 0.90625q0.234375 0.4375 0.609375 0.8125q0.390625 0.375 0.953125 0.65625q0.5625 0.265625 1.328125 0.4375q0.78125 0.15625 1.8125 0.15625q1.515625 0 2.5 -0.34375q0.984375 -0.359375 1.546875 -0.90625q0.578125 -0.5625 0.796875 -1.25q0.21875 -0.703125 0.21875 -1.40625zm21.838196 -0.015625q0 1.203125 -0.265625 2.140625q-0.265625 0.921875 -0.75 1.625q-0.46875 0.6875 -1.140625 1.171875q-0.671875 0.484375 -1.5 0.78125q-0.8125 0.28125 -1.765625 0.421875q-0.9375 0.125 -1.96875 0.125l-7.953125 0l0 -12.515625l7.9375 0q1.015625 0 1.96875 0.140625q0.953125 0.125 1.765625 0.421875q0.828125 0.28125 1.5 0.765625q0.6875 0.46875 1.15625 1.171875q0.484375 0.703125 0.75 1.640625q0.265625 0.921875 0.265625 2.109375zm-3.40625 0q0 -0.90625 -0.234375 -1.5625q-0.234375 -0.671875 -0.75 -1.09375q-0.515625 -0.4375 -1.34375 -0.65625q-0.828125 -0.21875 -2.03125 -0.21875l-4.1875 0l0 7.078125l4.1875 0q1.203125 0 2.03125 -0.21875q0.828125 -0.21875 1.34375 -0.65625q0.515625 -0.4375 0.75 -1.09375q0.234375 -0.671875 0.234375 -1.578125zm12.283997 6.265625l0 -2.234375q2.4375 -1.125 4.234375 -2.0q1.796875 -0.890625 2.96875 -1.609375q1.1875 -0.71875 1.765625 -1.3125q0.578125 -0.609375 0.578125 -1.15625q0 -0.15625 -0.03125 -0.34375q-0.03125 -0.203125 -0.15625 -0.40625q-0.109375 -0.21875 -0.328125 -0.40625q-0.21875 -0.203125 -0.609375 -0.34375q-0.375 -0.15625 -0.9375 -0.25q-0.5625 -0.109375 -1.359375 -0.109375q-0.75 0 -1.546875 0.109375q-0.796875 0.09375 -1.59375 0.265625q-0.78125 0.171875 -1.515625 0.421875q-0.71875 0.234375 -1.328125 0.546875l0 -2.984375q1.265625 -0.4375 2.796875 -0.71875q1.53125 -0.296875 3.234375 -0.296875q1.59375 0 2.84375 0.28125q1.265625 0.28125 2.125 0.8125q0.875 0.53125 1.328125 1.296875q0.46875 0.75 0.46875 1.703125q0 0.53125 -0.109375 1.0q-0.109375 0.453125 -0.40625 0.890625q-0.296875 0.4375 -0.796875 0.890625q-0.484375 0.4375 -1.25 0.9375q-0.765625 0.484375 -1.828125 1.0625q-1.046875 0.5625 -2.453125 1.25l7.109375 0l0 2.703125l-13.203125 0zm22.694702 -1.0625l0 -2.90625l5.5 -2.265625l-5.5 -2.28125l0 -2.90625l9.4375 4.203125l0 1.984375l-9.4375 4.171875zm33.519318 -5.1875q0 1.5 -0.578125 2.71875q-0.5625 1.203125 -1.5625 2.078125q-0.984375 0.859375 -2.34375 1.328125q-1.34375 0.46875 -2.890625 0.46875q-1.03125 0 -1.984375 -0.21875q-0.953125 -0.203125 -1.78125 -0.609375q-0.8125 -0.40625 -1.484375 -0.984375q-0.671875 -0.578125 -1.140625 -1.296875q-0.46875 -0.734375 -0.734375 -1.609375q-0.265625 -0.875 -0.265625 -1.875q0 -0.984375 0.265625 -1.859375q0.265625 -0.890625 0.734375 -1.609375q0.46875 -0.734375 1.140625 -1.3125q0.671875 -0.578125 1.484375 -0.984375q0.828125 -0.40625 1.78125 -0.609375q0.953125 -0.203125 1.984375 -0.203125q1.546875 0 2.890625 0.46875q1.359375 0.46875 2.34375 1.328125q1.0 0.859375 1.5625 2.078125q0.578125 1.203125 0.578125 2.703125zm-3.375 0q0 -0.953125 -0.328125 -1.671875q-0.328125 -0.734375 -0.890625 -1.234375q-0.546875 -0.5 -1.265625 -0.75q-0.71875 -0.265625 -1.515625 -0.265625q-0.796875 0 -1.53125 0.265625q-0.71875 0.25 -1.265625 0.75q-0.546875 0.5 -0.890625 1.234375q-0.328125 0.71875 -0.328125 1.671875q0 0.953125 0.328125 1.6875q0.34375 0.71875 0.890625 1.21875q0.546875 0.5 1.265625 0.765625q0.734375 0.25 1.53125 0.25q0.796875 0 1.515625 -0.25q0.71875 -0.265625 1.265625 -0.765625q0.5625 -0.5 0.890625 -1.21875q0.328125 -0.734375 0.328125 -1.6875z" fill-rule="nonzero"/><path fill="#000000" fill-opacity="0.0" d="m118.35698 9.968504l277.7323 0l0 42.015747l-277.7323 0z" fill-rule="evenodd"/><path fill="#bf9000" d="m137.59135 30.466627l5.9375 6.421873l-4.046875 0l-3.921875 -4.21875l-3.890625 4.21875l-4.046875 0l5.921875 -6.421873l-5.625 -6.09375l4.046875 0l3.59375 3.921875l3.625 -3.921875l4.046875 0l-5.640625 6.09375zm10.011658 6.796873l-2.96875 0l6.171875 -13.453123l2.96875 0l-6.171875 13.453123zm7.7595825 -0.375l0 -2.234375q2.4375 -1.125 4.234375 -2.0q1.796875 -0.8906231 2.96875 -1.6093731q1.1875 -0.71875 1.765625 -1.3125q0.578125 -0.609375 0.578125 -1.15625q0 -0.15625 -0.03125 -0.34375q-0.03125 -0.203125 -0.15625 -0.40625q-0.109375 -0.21875 -0.328125 -0.40625q-0.21875 -0.203125 -0.609375 -0.34375q-0.375 -0.15625 -0.9375 -0.25q-0.5625 -0.109375 -1.359375 -0.109375q-0.75 0 -1.546875 0.109375q-0.796875 0.09375 -1.59375 0.265625q-0.78125 0.171875 -1.515625 0.421875q-0.71875 0.234375 -1.328125 0.546875l0 -2.984375q1.265625 -0.4375 2.796875 -0.71875q1.53125 -0.296875 3.234375 -0.296875q1.59375 0 2.84375 0.28125q1.265625 0.28125 2.125 0.8125q0.875 0.53125 1.328125 1.296875q0.46875 0.75 0.46875 1.703125q0 0.53125 -0.109375 1.0q-0.109375 0.453125 -0.40625 0.890625q-0.296875 0.4375 -0.796875 0.890625q-0.484375 0.4375 -1.25 0.9375q-0.765625 0.4843731 -1.828125 1.0624981q-1.046875 0.5625 -2.453125 1.25l7.109375 0l0 2.703125l-13.203125 0zm44.300156 0l0 -12.515623l3.390625 0l0 12.515623l-3.390625 0zm13.218582 -9.843748q-0.59375 0 -1.0625 0.046875q-0.46875 0.046875 -0.796875 0.21875q-0.328125 0.171875 -0.5 0.515625q-0.171875 0.328125 -0.171875 0.921875l0 0.46875l9.4375 0l0 2.671875l-9.4375 0l0 4.999998l-3.390625 0l0 -8.421873q0 -0.953125 0.28125 -1.71875q0.296875 -0.765625 0.96875 -1.28125q0.671875 -0.53125 1.78125 -0.8125q1.125 -0.28125 2.78125 -0.28125l7.453125 0l0 2.671875l-7.34375 0zm25.533936 3.421875l5.9375 6.421873l-4.046875 0l-3.921875 -4.21875l-3.890625 4.21875l-4.046875 0l5.921875 -6.421873l-5.625 -6.09375l4.046875 0l3.59375 3.921875l3.625 -3.921875l4.046875 0l-5.640625 6.09375zm18.557205 -6.09375l0 1.375q0.4375 -0.28125 0.953125 -0.578125q0.53125 -0.3125 1.140625 -0.546875q0.625 -0.25 1.328125 -0.40625q0.703125 -0.15625 1.53125 -0.15625q0.796875 0 1.390625 0.171875q0.609375 0.15625 1.046875 0.4375q0.453125 0.265625 0.75 0.59375q0.3125 0.328125 0.546875 0.65625q0.640625 -0.421875 1.265625 -0.765625q0.640625 -0.34375 1.265625 -0.59375q0.640625 -0.25 1.296875 -0.375q0.671875 -0.125 1.390625 -0.125q1.15625 0 2.0625 0.3125q0.90625 0.3125 1.53125 0.875q0.625 0.546875 0.953125 1.3125q0.34375 0.75 0.34375 1.59375l0 8.734373l-3.375 0l0 -8.249998q0 -0.5 -0.15625 -0.859375q-0.15625 -0.359375 -0.421875 -0.578125q-0.25 -0.234375 -0.609375 -0.34375q-0.34375 -0.109375 -0.734375 -0.109375q-1.828125 0 -4.15625 1.625q0.03125 0.15625 0.03125 0.375q0.015625 0.203125 0.015625 0.421875l0 7.718748l-3.375 0l0 -8.312498q0 -0.5 -0.15625 -0.84375q-0.15625 -0.359375 -0.421875 -0.578125q-0.265625 -0.21875 -0.625 -0.3125q-0.34375 -0.09375 -0.734375 -0.09375q-0.46875 0 -1.0 0.140625q-0.53125 0.125 -1.0625 0.375q-0.53125 0.25 -1.046875 0.59375q-0.515625 0.328125 -0.96875 0.71875l0 8.312498l-3.3906097 0l0 -12.515623l3.3906097 0zm38.856567 6.265625q0 1.6093731 -0.59375 2.843748q-0.59375 1.234375 -1.703125 2.0625q-1.09375 0.828125 -2.671875 1.265625q-1.5625 0.421875 -3.515625 0.421875q-1.96875 0 -3.546875 -0.421875q-1.578125 -0.4375 -2.6875 -1.265625q-1.109375 -0.828125 -1.71875 -2.0625q-0.59375 -1.234375 -0.59375 -2.843748q0 -1.609375 0.59375 -2.84375q0.609375 -1.234375 1.71875 -2.0625q1.109375 -0.828125 2.6875 -1.25q1.578125 -0.421875 3.546875 -0.421875q1.953125 0 3.515625 0.421875q1.578125 0.421875 2.671875 1.25q1.109375 0.828125 1.703125 2.0625q0.59375 1.234375 0.59375 2.84375zm-3.421875 0q0 -0.703125 -0.21875 -1.390625q-0.21875 -0.703125 -0.796875 -1.25q-0.5625 -0.5625 -1.546875 -0.90625q-0.984375 -0.34375 -2.5 -0.34375q-1.03125 0 -1.8125 0.15625q-0.765625 0.15625 -1.328125 0.4375q-0.5625 0.28125 -0.953125 0.65625q-0.375 0.375 -0.609375 0.8125q-0.21875 0.4375 -0.3125 0.90625q-0.09375 0.46875 -0.09375 0.921875q0 0.46875 0.09375 0.9375q0.09375 0.4687481 0.3125 0.9062481q0.234375 0.4375 0.609375 0.8125q0.390625 0.375 0.953125 0.65625q0.5625 0.265625 1.328125 0.4375q0.78125 0.15625 1.8125 0.15625q1.515625 0 2.5 -0.34375q0.984375 -0.359375 1.546875 -0.90625q0.578125 -0.5625 0.796875 -1.25q0.21875 -0.7031231 0.21875 -1.4062481zm21.838196 -0.015625q0 1.203125 -0.265625 2.140623q-0.265625 0.921875 -0.75 1.625q-0.46875 0.6875 -1.140625 1.171875q-0.671875 0.484375 -1.5 0.78125q-0.8125 0.28125 -1.765625 0.421875q-0.9375 0.125 -1.96875 0.125l-7.953125 0l0 -12.515623l7.9375 0q1.015625 0 1.96875 0.140625q0.953125 0.125 1.765625 0.421875q0.828125 0.28125 1.5 0.765625q0.6875 0.46875 1.15625 1.171875q0.484375 0.703125 0.75 1.640625q0.265625 0.921875 0.265625 2.109375zm-3.40625 0q0 -0.90625 -0.234375 -1.5625q-0.234375 -0.671875 -0.75 -1.09375q-0.515625 -0.4375 -1.34375 -0.65625q-0.828125 -0.21875 -2.03125 -0.21875l-4.1875 0l0 7.078123l4.1875 0q1.203125 0 2.03125 -0.21875q0.828125 -0.21875 1.34375 -0.65625q0.515625 -0.4375 0.75 -1.09375q0.234375 -0.6718731 0.234375 -1.5781231zm12.283966 6.265623l0 -2.234375q2.4375 -1.125 4.234375 -2.0q1.796875 -0.8906231 2.96875 -1.6093731q1.1875 -0.71875 1.765625 -1.3125q0.578125 -0.609375 0.578125 -1.15625q0 -0.15625 -0.03125 -0.34375q-0.03125 -0.203125 -0.15625 -0.40625q-0.109375 -0.21875 -0.328125 -0.40625q-0.21875 -0.203125 -0.609375 -0.34375q-0.375 -0.15625 -0.9375 -0.25q-0.5625 -0.109375 -1.359375 -0.109375q-0.75 0 -1.546875 0.109375q-0.796875 0.09375 -1.59375 0.265625q-0.78125 0.171875 -1.515625 0.421875q-0.71875 0.234375 -1.328125 0.546875l0 -2.984375q1.265625 -0.4375 2.796875 -0.71875q1.53125 -0.296875 3.234375 -0.296875q1.59375 0 2.84375 0.28125q1.265625 0.28125 2.125 0.8125q0.875 0.53125 1.328125 1.296875q0.46875 0.75 0.46875 1.703125q0 0.53125 -0.109375 1.0q-0.109375 0.453125 -0.40625 0.890625q-0.296875 0.4375 -0.796875 0.890625q-0.484375 0.4375 -1.25 0.9375q-0.765625 0.4843731 -1.828125 1.0624981q-1.046875 0.5625 -2.453125 1.25l7.109375 0l0 2.703125l-13.203125 0zm22.694733 -7.296873l0 -2.671875l9.828125 0l0 2.671875l-9.828125 0zm0 4.796873l0 -2.687498l9.828125 0l0 2.687498l-9.828125 0zm34.056732 -3.749998q0 1.4999981 -0.578125 2.718748q-0.5625 1.203125 -1.5625 2.078125q-0.984375 0.859375 -2.34375 1.328125q-1.3437195 0.46875 -2.8905945 0.46875q-1.03125 0 -1.984375 -0.21875q-0.953125 -0.203125 -1.78125 -0.609375q-0.8125 -0.40625 -1.484375 -0.984375q-0.671875 -0.578125 -1.140625 -1.296875q-0.46875 -0.734375 -0.734375 -1.609375q-0.265625 -0.8749981 -0.265625 -1.8749981q0 -0.984375 0.265625 -1.859375q0.265625 -0.890625 0.734375 -1.609375q0.46875 -0.734375 1.140625 -1.3125q0.671875 -0.578125 1.484375 -0.984375q0.828125 -0.40625 1.78125 -0.609375q0.953125 -0.203125 1.984375 -0.203125q1.546875 0 2.8905945 0.46875q1.359375 0.46875 2.34375 1.328125q1.0 0.859375 1.5625 2.078125q0.578125 1.203125 0.578125 2.703125zm-3.375 0q0 -0.953125 -0.328125 -1.671875q-0.328125 -0.734375 -0.890625 -1.234375q-0.546875 -0.5 -1.2655945 -0.75q-0.71875 -0.265625 -1.515625 -0.265625q-0.796875 0 -1.53125 0.265625q-0.71875 0.25 -1.265625 0.75q-0.546875 0.5 -0.890625 1.234375q-0.328125 0.71875 -0.328125 1.671875q0 0.953125 0.328125 1.6874981q0.34375 0.71875 0.890625 1.21875q0.546875 0.5 1.265625 0.765625q0.734375 0.25 1.53125 0.25q0.796875 0 1.515625 -0.25q0.7187195 -0.265625 1.2655945 -0.765625q0.5625 -0.5 0.890625 -1.21875q0.328125 -0.7343731 0.328125 -1.6874981z" fill-rule="nonzero"/><path fill="#000000" fill-opacity="0.0" d="m9.145954 24.927307l104.566925 0l0 42.015747l-104.566925 0z" fill-rule="evenodd"/><path fill="#bf9000" d="m31.63033 42.86293q-0.34375 -0.1875 -0.9375 -0.390625q-0.578125 -0.21875 -1.3125 -0.421875q-0.734375 -0.203125 -1.609375 -0.328125q-0.859375 -0.125 -1.765625 -0.125q-0.734375 0 -1.25 0.046875q-0.515625 0.03125 -0.875 0.109375q-0.34375 0.078125 -0.546875 0.171875q-0.203125 0.09375 -0.3125 0.203125q-0.109375 0.09375 -0.140625 0.203125q-0.03125 0.09375 -0.03125 0.171875q0 0.265625 0.265625 0.484375q0.28125 0.203125 0.75 0.359375q0.46875 0.15625 1.09375 0.296875q0.640625 0.140625 1.34375 0.296875q0.703125 0.140625 1.453125 0.328125q0.75 0.171875 1.453125 0.40625q0.71875 0.234375 1.34375 0.5625q0.625 0.3125 1.09375 0.734375q0.484375 0.40625 0.75 0.953125q0.28125 0.546875 0.28125 1.25q0 0.90625 -0.328125 1.5625q-0.3125 0.640625 -0.84375 1.09375q-0.53125 0.4375 -1.234375 0.703125q-0.703125 0.265625 -1.46875 0.40625q-0.765625 0.15625 -1.5625 0.203125q-0.78125 0.046875 -1.5 0.046875q-1.859375 0 -3.4375 -0.3125q-1.578125 -0.296875 -2.796875 -0.765625l0 -2.984375q1.25 0.6875 2.84375 1.09375q1.609375 0.390625 3.4375 0.390625q1.0625 0 1.734375 -0.109375q0.6875 -0.125 1.0625 -0.296875q0.390625 -0.1875 0.53125 -0.390625q0.140625 -0.21875 0.140625 -0.40625q0 -0.296875 -0.28125 -0.515625q-0.265625 -0.234375 -0.75 -0.390625q-0.46875 -0.171875 -1.09375 -0.3125q-0.625 -0.140625 -1.34375 -0.28125q-0.703125 -0.140625 -1.453125 -0.296875q-0.734375 -0.171875 -1.453125 -0.390625q-0.703125 -0.234375 -1.328125 -0.53125q-0.625 -0.296875 -1.109375 -0.703125q-0.46875 -0.40625 -0.75 -0.9375q-0.265625 -0.53125 -0.265625 -1.234375q0 -0.828125 0.296875 -1.421875q0.296875 -0.609375 0.78125 -1.03125q0.5 -0.421875 1.140625 -0.6875q0.65625 -0.265625 1.375 -0.40625q0.734375 -0.140625 1.46875 -0.1875q0.734375 -0.0625 1.40625 -0.0625q0.71875 0 1.484375 0.078125q0.78125 0.0625 1.515625 0.203125q0.75 0.125 1.453125 0.296875q0.703125 0.171875 1.28125 0.359375l0 2.90625zm6.6279144 2.75q0 0.84375 0.15625 1.5625q0.15625 0.71875 0.46875 1.375q0.328125 0.65625 0.8125 1.28125q0.484375 0.609375 1.15625 1.265625l-1.875 2.03125q-0.84375 -0.65625 -1.53125 -1.421875q-0.6875 -0.765625 -1.1875 -1.671875q-0.5 -0.921875 -0.78125 -2.0q-0.265625 -1.09375 -0.265625 -2.421875q0 -1.3125 0.265625 -2.40625q0.28125 -1.09375 0.78125 -2.0q0.5 -0.90625 1.1875 -1.671875q0.6875 -0.765625 1.53125 -1.4375l1.875 2.03125q-0.671875 0.65625 -1.15625 1.28125q-0.484375 0.625 -0.8125 1.28125q-0.3125 0.640625 -0.46875 1.359375q-0.15625 0.71875 -0.15625 1.5625zm14.508209 -0.1875l5.9375 6.421875l-4.046875 0l-3.921875 -4.21875l-3.890625 4.21875l-4.046875 0l5.921875 -6.421875l-5.625 -6.09375l4.046875 0l3.59375 3.921875l3.625 -3.921875l4.046875 0l-5.640625 6.09375zm10.464783 0.1875q0 -0.84375 -0.15625 -1.5625q-0.140625 -0.71875 -0.46875 -1.359375q-0.3125 -0.65625 -0.8125 -1.28125q-0.484375 -0.625 -1.15625 -1.28125l1.140625 -1.21875l0 -0.03125l0.75 -0.78125q0.828125 0.625 1.5000038 1.390625q0.5 0.578125 0.90625 1.21875q0.40625 0.625 0.6875 1.359375q0.296875 0.71875 0.46875 1.546875q0.171875 0.828125 0.1875 1.78125l0 0.21875q0 1.0 -0.15625 1.875q-0.15625 0.859375 -0.453125 1.609375q-0.296875 0.75 -0.71875 1.40625q-0.40625 0.65625 -0.921875 1.234375q-0.3125038 0.34375 -0.6562538 0.65625q-0.328125 0.3125 -0.671875 0.609375q-0.046875 0.03125 -0.09375 0.046875q-0.03125 0.03125 -0.078125 0.078125l-0.75 -0.78125l0 -0.015625l-1.140625 -1.234375q0.671875 -0.65625 1.15625 -1.265625q0.5 -0.625 0.8125 -1.28125q0.328125 -0.65625 0.46875 -1.375q0.15625 -0.71875 0.15625 -1.5625zm12.756901 -1.0625l0 -2.671875l9.828125 0l0 2.671875l-9.828125 0zm0 4.796875l0 -2.6875l9.828125 0l0 2.6875l-9.828125 0z" fill-rule="nonzero"/><path fill="#000000" fill-opacity="0.0" d="m84.73097 -19.958006l38.58268 0l0 116.34646l-38.58268 0z" fill-rule="evenodd"/><path fill="#bf9000" d="m95.96535 41.93574q3.0 -0.078125 4.890625 -1.625q1.90625 -1.546875 2.53125 -4.234375q0.625 -2.703125 0.65625 -9.218752q0.046875 -6.53125 0.234375 -8.59375q0.359375 -3.281249 1.3125 -5.265624q0.953125 -2.0 2.359375 -3.1875q1.40625 -1.203125 3.59375 -1.8281255q1.484375 -0.390625 4.84375 -0.390625l2.1875 0l0 6.1406255l-1.203125 0q-4.0625 0 -5.390625 1.46875q-1.328125 1.453124 -1.328125 6.531249q0 10.234375 -0.4375 12.937502q-0.703125 4.171875 -2.40625 6.4375q-1.6875 2.265625 -5.328125 4.03125q4.296875 1.796875 6.234375 5.484375q1.9375 3.6875 1.9375 12.09375q0 7.624996 0.15625 9.062496q0.3125 2.65625 1.578125 3.703125q1.265625 1.0625 4.984375 1.0625l1.203125 0l0 6.140625l-2.1875 0q-3.828125 0 -5.546875 -0.625q-2.5 -0.90625 -4.140625 -2.921875q-1.640625 -2.0 -2.125 -5.09375q-0.484375 -3.078125 -0.53125 -10.109371q-0.03125 -7.046875 -0.65625 -9.734375q-0.625 -2.703125 -2.53125 -4.265625q-1.890625 -1.5625 -4.890625 -1.640625l0 -6.359375z" fill-rule="nonzero"/></g></svg>