<svg version="1.1" viewBox="0.0 0.0 235.31758530183728 100.0" fill="none" stroke="none" stroke-linecap="square" stroke-miterlimit="10" xmlns:xlink="http://www.w3.org/1999/xlink" xmlns="http://www.w3.org/2000/svg"><clipPath id="p.0"><path d="m0 0l235.31758 0l0 100.0l-235.31758 0l0 -100.0z" clip-rule="nonzero"/></clipPath><g clip-path="url(#p.0)"><path fill="#000000" fill-opacity="0.0" d="m0 0l235.31758 0l0 100.0l-235.31758 0z" fill-rule="evenodd"/><path fill="#000000" fill-opacity="0.0" d="m1.1470026 0.9265092l245.10236 0l0 42.015747l-245.10236 0z" fill-rule="evenodd"/><path fill="#bf9000" d="m11.381377 27.846508l0 -2.609375l8.218751 -7.171875l-7.984376 0l0 -2.734376l12.843751 0l0 2.296876l-8.593751 7.484375l8.781251 0l0 2.734375l-13.265626 0zm18.723053 -6.234375q0 0.84375 0.15625 1.5625q0.15625 0.71875 0.46875 1.375q0.328125 0.65625 0.8125 1.28125q0.484375 0.609375 1.15625 1.265625l-1.875 2.03125q-0.84375 -0.65625 -1.53125 -1.421875q-0.6875 -0.765625 -1.1875 -1.671875q-0.5 -0.921875 -0.78125 -2.0q-0.265625 -1.09375 -0.265625 -2.421875q0 -1.3125 0.265625 -2.40625q0.28125 -1.09375 0.78125 -2.0q0.5 -0.90625 1.1875 -1.671876q0.6875 -0.765625 1.53125 -1.4375l1.875 2.031251q-0.671875 0.65625 -1.15625 1.28125q-0.484375 0.625 -0.8125 1.28125q-0.3125 0.640625 -0.46875 1.359375q-0.15625 0.71875 -0.15625 1.5625zm14.508209 -0.1875l5.9375 6.421875l-4.046875 0l-3.921875 -4.21875l-3.890625 4.21875l-4.046875 0l5.921875 -6.421875l-5.625 -6.093751l4.046875 0l3.59375 3.921876l3.625 -3.921876l4.046875 0l-5.640625 6.093751zm10.464783 0.1875q0 -0.84375 -0.15625 -1.5625q-0.140625 -0.71875 -0.46875 -1.359375q-0.3125 -0.65625 -0.8125 -1.28125q-0.484375 -0.625 -1.15625 -1.28125l1.140625 -1.218751l0 -0.03125l0.75 -0.78125q0.828125 0.625 1.5 1.390625q0.5 0.57812595 0.90625 1.218751q0.40625 0.625 0.6875 1.359375q0.296875 0.71875 0.46875 1.546875q0.171875 0.828125 0.1875 1.78125l0 0.21875q0 1.0 -0.15625 1.875q-0.15625 0.859375 -0.453125 1.609375q-0.296875 0.75 -0.71875 1.40625q-0.40625 0.65625 -0.921875 1.234375q-0.3125 0.34375 -0.65625 0.65625q-0.328125 0.3125 -0.671875 0.609375q-0.046875 0.03125 -0.09375 0.046875q-0.03125 0.03125 -0.078125 0.078125l-0.75 -0.78125l0 -0.015625l-1.140625 -1.234375q0.671875 -0.65625 1.15625 -1.265625q0.5 -0.625 0.8125 -1.28125q0.328125 -0.65625 0.46875 -1.375q0.15625 -0.71875 0.15625 -1.5625zm12.600647 1.0l0 -1.984375l9.4375 -4.203125l0 2.90625l-5.5 2.28125l5.5 2.265625l0 2.90625l-9.4375 -4.171875zm27.972427 -1.4375q0.953125 0.203125 1.609375 0.5q0.671875 0.296875 1.078125 0.6875q0.421875 0.390625 0.609375 0.875q0.203125 0.46875 0.203125 1.03125q0 0.984375 -0.53125 1.71875q-0.53125 0.734375 -1.484375 1.234375q-0.9375 0.484375 -2.234375 0.71875q-1.28125 0.25 -2.765625 0.25q-1.0 0 -1.84375 -0.09375q-0.84375 -0.09375 -1.546875 -0.234375q-0.703125 -0.125 -1.296875 -0.296875q-0.59375 -0.171875 -1.09375 -0.34375l0 -2.984375q0.5625 0.296875 1.265625 0.53125q0.703125 0.234375 1.453125 0.40625q0.75 0.171875 1.515625 0.265625q0.765625 0.078125 1.453125 0.078125q1.234375 0 1.96875 -0.140625q0.75 -0.15625 1.125 -0.390625q0.390625 -0.234375 0.5 -0.5q0.109375 -0.265625 0.109375 -0.5q0 -0.40625 -0.265625 -0.6875q-0.25 -0.296875 -0.90625 -0.484375q-0.640625 -0.203125 -1.765625 -0.296875q-1.109375 -0.09375 -2.796875 -0.09375l0 -2.484375q1.546875 0 2.5625 -0.0625q1.015625 -0.0625 1.625 -0.203125q0.609375 -0.140625 0.859375 -0.359375q0.25 -0.21875 0.25 -0.53125q0 -0.109375 -0.03125 -0.21875q-0.03125 -0.125 -0.140625 -0.25q-0.109375 -0.125 -0.328125 -0.234375q-0.203125 -0.125 -0.578125 -0.21875q-0.359375 -0.09375 -0.90625 -0.140625q-0.53125 -0.0625 -1.28125 -0.0625q-0.703125 0 -1.4375 0.078125q-0.734375 0.078125 -1.4375 0.21875q-0.703125 0.140625 -1.359375 0.359375q-0.65625 0.203125 -1.21875 0.484375l0 -2.984376q1.25 -0.40625 2.65625 -0.59375q1.40625 -0.203125 2.796875 -0.203125q1.359375 0 2.5625 0.1875q1.203125 0.171875 2.109375 0.578125q0.90625 0.39062595 1.4375 1.031251q0.53125 0.625 0.53125 1.515625q0 0.484375 -0.171875 0.921875q-0.171875 0.4375 -0.53125 0.796875q-0.359375 0.359375 -0.9375 0.640625q-0.578125 0.28125 -1.390625 0.484375zm15.62323 1.78125l0.296875 -2.640625l-2.3125 1.6875l-1.0 -1.6875l2.640625 -1.15625l-2.609375 -1.15625l0.96875 -1.703125l2.3125 1.703125l-0.296875 -2.671876l1.953125 0l-0.296875 2.625001l2.28125 -1.65625l0.96875 1.703125l-2.59375 1.15625l2.609375 1.140625l-0.984375 1.6875l-2.28125 -1.65625l0.296875 2.625l-1.953125 0zm26.353897 -4.09375q-0.34375 -0.1875 -0.9375 -0.390625q-0.578125 -0.21875 -1.3125 -0.421875q-0.734375 -0.203125 -1.609375 -0.328125q-0.859375 -0.125 -1.765625 -0.125q-0.734375 0 -1.25 0.046875q-0.515625 0.03125 -0.875 0.109375q-0.34375 0.078125 -0.546875 0.171875q-0.203125 0.09375 -0.3125 0.203125q-0.109375 0.09375 -0.140625 0.203125q-0.03125 0.09375 -0.03125 0.171875q0 0.265625 0.265625 0.484375q0.28125 0.203125 0.75 0.359375q0.46875 0.15625 1.09375 0.296875q0.640625 0.140625 1.34375 0.296875q0.703125 0.140625 1.453125 0.328125q0.75 0.171875 1.453125 0.40625q0.71875 0.234375 1.34375 0.5625q0.625 0.3125 1.09375 0.734375q0.484375 0.40625 0.75 0.953125q0.28125 0.546875 0.28125 1.25q0 0.90625 -0.328125 1.5625q-0.3125 0.640625 -0.84375 1.09375q-0.53125 0.4375 -1.234375 0.703125q-0.703125 0.265625 -1.46875 0.40625q-0.765625 0.15625 -1.5625 0.203125q-0.78125 0.046875 -1.5 0.046875q-1.859375 0 -3.4375 -0.3125q-1.578125 -0.296875 -2.796875 -0.765625l0 -2.984375q1.25 0.6875 2.84375 1.09375q1.609375 0.390625 3.4375 0.390625q1.0625 0 1.734375 -0.109375q0.6875 -0.125 1.0625 -0.296875q0.390625 -0.1875 0.53125 -0.390625q0.140625 -0.21875 0.140625 -0.40625q0 -0.296875 -0.28125 -0.515625q-0.265625 -0.234375 -0.75 -0.390625q-0.46875 -0.171875 -1.09375 -0.3125q-0.625 -0.140625 -1.34375 -0.28125q-0.703125 -0.140625 -1.453125 -0.296875q-0.734375 -0.171875 -1.453125 -0.390625q-0.703125 -0.234375 -1.328125 -0.53125q-0.625 -0.296875 -1.109375 -0.703125q-0.46875 -0.40625 -0.75 -0.9375q-0.265625 -0.53125 -0.265625 -1.234375q0 -0.828125 0.296875 -1.421875q0.296875 -0.609375 0.78125 -1.03125q0.5 -0.42187595 1.140625 -0.68750095q0.65625 -0.265625 1.375 -0.40625q0.734375 -0.140625 1.46875 -0.1875q0.734375 -0.0625 1.40625 -0.0625q0.71875 0 1.484375 0.078125q0.78125 0.0625 1.515625 0.203125q0.75 0.125 1.453125 0.296875q0.703125 0.171875 1.28125 0.359375l0 2.906251zm6.6279144 2.75q0 0.84375 0.15625 1.5625q0.15625 0.71875 0.46875 1.375q0.328125 0.65625 0.8125 1.28125q0.484375 0.609375 1.15625 1.265625l-1.875 2.03125q-0.84375 -0.65625 -1.53125 -1.421875q-0.6875 -0.765625 -1.1875 -1.671875q-0.5 -0.921875 -0.78125 -2.0q-0.265625 -1.09375 -0.265625 -2.421875q0 -1.3125 0.265625 -2.40625q0.28125 -1.09375 0.78125 -2.0q0.5 -0.90625 1.1875 -1.671876q0.6875 -0.765625 1.53125 -1.4375l1.875 2.031251q-0.671875 0.65625 -1.15625 1.28125q-0.484375 0.625 -0.8125 1.28125q-0.3125 0.640625 -0.46875 1.359375q-0.15625 0.71875 -0.15625 1.5625zm12.522522 6.234375l0 -2.609375l8.21875 -7.171875l-7.984375 0l0 -2.734376l12.84375 0l0 2.296876l-8.59375 7.484375l8.78125 0l0 2.734375l-13.265625 0zm18.723053 -6.234375q0 0.84375 0.15625 1.5625q0.15625 0.71875 0.46875 1.375q0.328125 0.65625 0.8125 1.28125q0.484375 0.609375 1.15625 1.265625l-1.875 2.03125q-0.84375 -0.65625 -1.53125 -1.421875q-0.6875 -0.765625 -1.1875 -1.671875q-0.5 -0.921875 -0.78125 -2.0q-0.265625 -1.09375 -0.265625 -2.421875q0 -1.3125 0.265625 -2.40625q0.28125 -1.09375 0.78125 -2.0q0.5 -0.90625 1.1875 -1.671876q0.6875 -0.765625 1.53125 -1.4375l1.875 2.031251q-0.671875 0.65625 -1.15625 1.28125q-0.484375 0.625 -0.8125 1.28125q-0.3125 0.640625 -0.46875 1.359375q-0.15625 0.71875 -0.15625 1.5625zm14.508209 -0.1875l5.9375 6.421875l-4.046875 0l-3.921875 -4.21875l-3.890625 4.21875l-4.046875 0l5.921875 -6.421875l-5.625 -6.093751l4.046875 0l3.59375 3.921876l3.625 -3.921876l4.046875 0l-5.640625 6.093751zm10.464783 0.1875q0 -0.84375 -0.15625 -1.5625q-0.140625 -0.71875 -0.46875 -1.359375q-0.3125 -0.65625 -0.8125 -1.28125q-0.484375 -0.625 -1.15625 -1.28125l1.140625 -1.218751l0 -0.03125l0.75 -0.78125q0.828125 0.625 1.5 1.390625q0.5 0.57812595 0.90625 1.218751q0.40625 0.625 0.6875 1.359375q0.296875 0.71875 0.46875 1.546875q0.171875 0.828125 0.1875 1.78125l0 0.21875q0 1.0 -0.15625 1.875q-0.15625 0.859375 -0.453125 1.609375q-0.296875 0.75 -0.71875 1.40625q-0.40625 0.65625 -0.921875 1.234375q-0.3125 0.34375 -0.65625 0.65625q-0.328125 0.3125 -0.671875 0.609375q-0.046875 0.03125 -0.09375 0.046875q-0.03125 0.03125 -0.078125 0.078125l-0.75 -0.78125l0 -0.015625l-1.140625 -1.234375q0.671875 -0.65625 1.15625 -1.265625q0.5 -0.625 0.8125 -1.28125q0.328125 -0.65625 0.46875 -1.375q0.15625 -0.71875 0.15625 -1.5625zm15.631897 0q0 -0.84375 -0.15625 -1.5625q-0.140625 -0.71875 -0.46875 -1.359375q-0.3125 -0.65625 -0.8125 -1.28125q-0.484375 -0.625 -1.15625 -1.28125l1.140625 -1.218751l0 -0.03125l0.75 -0.78125q0.828125 0.625 1.5 1.390625q0.5 0.57812595 0.90625 1.218751q0.40625 0.625 0.6875 1.359375q0.296875 0.71875 0.46875 1.546875q0.171875 0.828125 0.1875 1.78125l0 0.21875q0 1.0 -0.15625 1.875q-0.15625 0.859375 -0.453125 1.609375q-0.296875 0.75 -0.71875 1.40625q-0.40625 0.65625 -0.921875 1.234375q-0.3125 0.34375 -0.65625 0.65625q-0.328125 0.3125 -0.671875 0.609375q-0.046875 0.03125 -0.09375 0.046875q-0.03125 0.03125 -0.078125 0.078125l-0.75 -0.78125l0 -0.015625l-1.140625 -1.234375q0.671875 -0.65625 1.15625 -1.265625q0.5 -0.625 0.8125 -1.28125q0.328125 -0.65625 0.46875 -1.375q0.15625 -0.71875 0.15625 -1.5625z" fill-rule="nonzero"/></g></svg>