<svg version="1.1" viewBox="0.0 0.0 467.0 100.0" fill="none" stroke="none" stroke-linecap="square" stroke-miterlimit="10" xmlns:xlink="http://www.w3.org/1999/xlink" xmlns="http://www.w3.org/2000/svg"><clipPath id="p.0"><path d="m0 0l467.0 0l0 100.0l-467.0 0l0 -100.0z" clip-rule="nonzero"/></clipPath><g clip-path="url(#p.0)"><path fill="#000000" fill-opacity="0.0" d="m0 0l467.0 0l0 100.0l-467.0 0z" fill-rule="evenodd"/><path fill="#000000" fill-opacity="0.0" d="m13.279528 18.48819l440.44092 0l0 63.02362l-440.44092 0z" fill-rule="evenodd"/><path fill="#bf9000" d="m24.654528 62.048187l0 -5.046875l15.874998 -13.8125l-15.406248 0l0 -5.296875l24.765623 0l0 4.4375l-16.59375 14.421875l16.953125 0l0 5.296875l-25.593748 0zm36.14453 -12.03125q0 1.640625 0.296875 3.03125q0.296875 1.375 0.90625 2.640625q0.625 1.265625 1.5625 2.46875q0.9375 1.1875 2.234375 2.453125l-3.640625 3.921875q-1.609375 -1.28125 -2.9375 -2.765625q-1.328125 -1.484375 -2.296875 -3.234375q-0.953125 -1.765625 -1.484375 -3.859375q-0.515625 -2.09375 -0.515625 -4.65625q0 -2.546875 0.515625 -4.640625q0.53125 -2.109375 1.484375 -3.859375q0.96875 -1.765625 2.296875 -3.21875q1.328125 -1.46875 2.9375 -2.78125l3.640625 3.921875q-1.296875 1.265625 -2.234375 2.46875q-0.9375 1.1875 -1.5625 2.453125q-0.609375 1.265625 -0.90625 2.65625q-0.296875 1.375 -0.296875 3.0zm28.003906 -0.359375l11.453125 12.390625l-7.828125 0l-7.546875 -8.140625l-7.53125 8.140625l-7.796875 0l11.4375 -12.390625l-10.875 -11.765625l7.8125 0l6.953125 7.5625l6.96875 -7.5625l7.828125 0l-10.875 11.765625zm20.195312 0.359375q0 -1.625 -0.3125 -3.0q-0.296875 -1.390625 -0.90625 -2.65625q-0.609375 -1.265625 -1.5625 -2.453125q-0.9375 -1.203125 -2.234375 -2.46875l2.203125 -2.375l0 -0.03125l1.4375 -1.515625q1.59375 1.21875 2.875 2.6875q0.96875 1.09375 1.765625 2.328125q0.796875 1.234375 1.359375 2.640625q0.5625 1.390625 0.875 2.984375q0.328125 1.59375 0.359375 3.421875l0 0.4375q0 1.9375 -0.3125 3.609375q-0.296875 1.671875 -0.859375 3.125q-0.5625 1.453125 -1.375 2.703125q-0.796875 1.25 -1.8125 2.375q-0.59375 0.671875 -1.234375 1.28125q-0.640625 0.609375 -1.3125 1.171875q-0.078125 0.046875 -0.15625 0.09375q-0.078125 0.0625 -0.171875 0.15625l-1.4375 -1.515625l0 -0.03125l-2.203125 -2.375q1.296875 -1.265625 2.234375 -2.453125q0.953125 -1.203125 1.5625 -2.46875q0.609375 -1.265625 0.90625 -2.640625q0.3125 -1.390625 0.3125 -3.03125zm24.289062 1.921875l0 -3.828125l18.203125 -8.09375l0 5.609375l-10.609375 4.390625l10.609375 4.359375l0 5.609375l-18.203125 -8.046875zm53.99414 -2.78125q1.8125 0.40625 3.09375 0.984375q1.28125 0.5625 2.09375 1.3125q0.8125 0.75 1.171875 1.671875q0.375 0.921875 0.375 2.015625q0 1.890625 -1.03125 3.328125q-1.015625 1.421875 -2.84375 2.359375q-1.8125 0.9375 -4.296875 1.40625q-2.484375 0.46875 -5.359375 0.46875q-1.9375 0 -3.5625 -0.171875q-1.609375 -0.171875 -2.96875 -0.4375q-1.359375 -0.265625 -2.5 -0.578125q-1.140625 -0.328125 -2.125 -0.671875l0 -5.78125q1.078125 0.578125 2.4375 1.046875q1.375 0.453125 2.8125 0.78125q1.453125 0.328125 2.921875 0.5q1.484375 0.15625 2.8125 0.15625q2.390625 0 3.8125 -0.28125q1.421875 -0.296875 2.15625 -0.75q0.734375 -0.453125 0.953125 -0.953125q0.234375 -0.515625 0.234375 -0.96875q0 -0.78125 -0.515625 -1.34375q-0.5 -0.5625 -1.75 -0.921875q-1.25 -0.375 -3.40625 -0.546875q-2.140625 -0.1875 -5.40625 -0.21875l0 -4.78125q2.96875 0 4.921875 -0.109375q1.96875 -0.125 3.140625 -0.390625q1.1875 -0.265625 1.65625 -0.6875q0.484375 -0.421875 0.484375 -1.03125q0 -0.203125 -0.0625 -0.421875q-0.046875 -0.234375 -0.265625 -0.484375q-0.203125 -0.25 -0.609375 -0.46875q-0.40625 -0.234375 -1.109375 -0.40625q-0.703125 -0.171875 -1.75 -0.28125q-1.03125 -0.109375 -2.484375 -0.109375q-1.375 0 -2.796875 0.140625q-1.40625 0.140625 -2.765625 0.421875q-1.34375 0.28125 -2.609375 0.6875q-1.265625 0.40625 -2.34375 0.953125l0 -5.765625q2.390625 -0.796875 5.109375 -1.171875q2.734375 -0.375 5.40625 -0.375q2.609375 0 4.9375 0.359375q2.328125 0.34375 4.078125 1.109375q1.75 0.765625 2.765625 1.984375q1.03125 1.21875 1.03125 2.953125q0 0.9375 -0.328125 1.78125q-0.328125 0.828125 -1.03125 1.53125q-0.703125 0.703125 -1.8125 1.25q-1.109375 0.546875 -2.671875 0.90625zm30.132812 3.453125l0.578125 -5.09375l-4.46875 3.265625l-1.90625 -3.265625l5.078125 -2.234375l-5.046875 -2.234375l1.875 -3.296875l4.46875 3.296875l-0.578125 -5.15625l3.78125 0l-0.578125 5.078125l4.390625 -3.21875l1.875 3.296875l-5.0 2.234375l5.046875 2.1875l-1.921875 3.28125l-4.390625 -3.203125l0.578125 5.0625l-3.78125 0zm50.869156 -7.90625q-0.6875 -0.34375 -1.8125 -0.765625q-1.125 -0.421875 -2.546875 -0.796875q-1.421875 -0.375 -3.09375 -0.625q-1.671875 -0.265625 -3.421875 -0.265625q-1.40625 0 -2.4062653 0.09375q-0.984375 0.078125 -1.671875 0.21875q-0.671875 0.140625 -1.078125 0.328125q-0.390625 0.1875 -0.609375 0.390625q-0.203125 0.1875 -0.265625 0.390625q-0.046875 0.1875 -0.046875 0.34375q0 0.515625 0.515625 0.921875q0.53125 0.390625 1.4375 0.703125q0.921875 0.296875 2.125 0.578125q1.2187653 0.265625 2.5781403 0.5625q1.375 0.28125 2.8125 0.625q1.453125 0.34375 2.8125 0.8125q1.375 0.453125 2.578125 1.0625q1.21875 0.59375 2.125 1.40625q0.921875 0.8125 1.4375 1.875q0.53125 1.046875 0.53125 2.40625q0 1.734375 -0.609375 2.984375q-0.609375 1.25 -1.640625 2.109375q-1.03125 0.859375 -2.390625 1.375q-1.34375 0.515625 -2.828125 0.796875q-1.484375 0.28125 -3.015625 0.375q-1.515625 0.09375 -2.890625 0.09375q-3.5781403 0 -6.6406403 -0.59375q-3.046875 -0.59375 -5.375 -1.46875l0 -5.765625q2.40625 1.328125 5.484375 2.09375q3.09375 0.75 6.6093903 0.75q2.078125 0 3.375 -0.21875q1.3125 -0.21875 2.046875 -0.5625q0.75 -0.34375 1.0 -0.75q0.265625 -0.40625 0.265625 -0.765625q0 -0.578125 -0.53125 -1.0q-0.515625 -0.4375 -1.4375 -0.765625q-0.90625 -0.328125 -2.125 -0.59375q-1.203125 -0.28125 -2.578125 -0.546875q-1.3593903 -0.28125 -2.7968903 -0.59375q-1.4375 -0.3125 -2.8125 -0.734375q-1.359375 -0.4375 -2.578125 -1.015625q-1.203125 -0.578125 -2.125 -1.359375q-0.90625 -0.78125 -1.4375 -1.796875q-0.515625 -1.03125 -0.515625 -2.390625q0 -1.59375 0.5625 -2.75q0.5625 -1.171875 1.515625 -1.984375q0.953125 -0.8125 2.203125 -1.328125q1.265625 -0.515625 2.65625 -0.796875q1.390625 -0.28125 2.8125 -0.375q1.421875 -0.109375 2.7031403 -0.109375q1.40625 0 2.890625 0.140625q1.484375 0.140625 2.921875 0.390625q1.453125 0.25 2.796875 0.59375q1.34375 0.328125 2.484375 0.703125l0 5.59375zm12.787109 5.3125q0 1.640625 0.296875 3.03125q0.296875 1.375 0.90625 2.640625q0.625 1.265625 1.5625 2.46875q0.9375 1.1875 2.234375 2.453125l-3.640625 3.921875q-1.609375 -1.28125 -2.9375 -2.765625q-1.328125 -1.484375 -2.296875 -3.234375q-0.953125 -1.765625 -1.484375 -3.859375q-0.515625 -2.09375 -0.515625 -4.65625q0 -2.546875 0.515625 -4.640625q0.53125 -2.109375 1.484375 -3.859375q0.96875 -1.765625 2.296875 -3.21875q1.328125 -1.46875 2.9375 -2.78125l3.640625 3.921875q-1.296875 1.265625 -2.234375 2.46875q-0.9375 1.1875 -1.5625 2.453125q-0.609375 1.265625 -0.90625 2.65625q-0.296875 1.375 -0.296875 3.0zm24.148438 12.03125l0 -5.046875l15.875 -13.8125l-15.40625 0l0 -5.296875l24.765625 0l0 4.4375l-16.59375 14.421875l16.953125 0l0 5.296875l-25.59375 0zm36.14453 -12.03125q0 1.640625 0.296875 3.03125q0.296875 1.375 0.90625 2.640625q0.625 1.265625 1.5625 2.46875q0.9375 1.1875 2.234375 2.453125l-3.640625 3.921875q-1.609375 -1.28125 -2.9375 -2.765625q-1.328125 -1.484375 -2.296875 -3.234375q-0.953125 -1.765625 -1.484375 -3.859375q-0.515625 -2.09375 -0.515625 -4.65625q0 -2.546875 0.515625 -4.640625q0.53125 -2.109375 1.484375 -3.859375q0.96875 -1.765625 2.296875 -3.21875q1.328125 -1.46875 2.9375 -2.78125l3.640625 3.921875q-1.296875 1.265625 -2.234375 2.46875q-0.9375 1.1875 -1.5625 2.453125q-0.609375 1.265625 -0.90625 2.65625q-0.296875 1.375 -0.296875 3.0zm28.003906 -0.359375l11.453125 12.390625l-7.828125 0l-7.546875 -8.140625l-7.53125 8.140625l-7.796875 0l11.4375 -12.390625l-10.875 -11.765625l7.8125 0l6.953125 7.5625l6.96875 -7.5625l7.828125 0l-10.875 11.765625zm20.195312 0.359375q0 -1.625 -0.3125 -3.0q-0.296875 -1.390625 -0.90625 -2.65625q-0.609375 -1.265625 -1.5625 -2.453125q-0.9375 -1.203125 -2.234375 -2.46875l2.203125 -2.375l0 -0.03125l1.4375 -1.515625q1.59375 1.21875 2.875 2.6875q0.96875 1.09375 1.765625 2.328125q0.796875 1.234375 1.359375 2.640625q0.5625 1.390625 0.875 2.984375q0.328125 1.59375 0.359375 3.421875l0 0.4375q0 1.9375 -0.3125 3.609375q-0.296875 1.671875 -0.859375 3.125q-0.5625 1.453125 -1.375 2.703125q-0.796875 1.25 -1.8125 2.375q-0.59375 0.671875 -1.234375 1.28125q-0.640625 0.609375 -1.3125 1.171875q-0.078125 0.046875 -0.15625 0.09375q-0.078125 0.0625 -0.171875 0.15625l-1.4375 -1.515625l0 -0.03125l-2.203125 -2.375q1.296875 -1.265625 2.234375 -2.453125q0.953125 -1.203125 1.5625 -2.46875q0.609375 -1.265625 0.90625 -2.640625q0.3125 -1.390625 0.3125 -3.03125zm30.164062 0q0 -1.625 -0.3125 -3.0q-0.296875 -1.390625 -0.90625 -2.65625q-0.609375 -1.265625 -1.5625 -2.453125q-0.9375 -1.203125 -2.234375 -2.46875l2.203125 -2.375l0 -0.03125l1.4375 -1.515625q1.59375 1.21875 2.875 2.6875q0.96875 1.09375 1.765625 2.328125q0.796875 1.234375 1.359375 2.640625q0.5625 1.390625 0.875 2.984375q0.328125 1.59375 0.359375 3.421875l0 0.4375q0 1.9375 -0.3125 3.609375q-0.296875 1.671875 -0.859375 3.125q-0.5625 1.453125 -1.375 2.703125q-0.796875 1.25 -1.8125 2.375q-0.59375 0.671875 -1.234375 1.28125q-0.640625 0.609375 -1.3125 1.171875q-0.078125 0.046875 -0.15625 0.09375q-0.078125 0.0625 -0.171875 0.15625l-1.4375 -1.515625l0 -0.03125l-2.203125 -2.375q1.296875 -1.265625 2.234375 -2.453125q0.953125 -1.203125 1.5625 -2.46875q0.609375 -1.265625 0.90625 -2.640625q0.3125 -1.390625 0.3125 -3.03125z" fill-rule="nonzero"/></g></svg>