<svg version="1.1" viewBox="0.0 0.0 583.49343832021 200.32808398950132" fill="none" stroke="none" stroke-linecap="square" stroke-miterlimit="10" xmlns:xlink="http://www.w3.org/1999/xlink" xmlns="http://www.w3.org/2000/svg"><clipPath id="p.0"><path d="m0 0l583.4934 0l0 200.32808l-583.4934 0l0 -200.32808z" clip-rule="nonzero"/></clipPath><g clip-path="url(#p.0)"><path fill="#000000" fill-opacity="0.0" d="m0 0l583.4934 0l0 200.32808l-583.4934 0z" fill-rule="evenodd"/><path fill="#000000" fill-opacity="0.0" d="m0 0l563.71655 0l0 206.83464l-563.71655 0z" fill-rule="evenodd"/><path fill="#bf9000" d="m93.125 102.12062q7.78125 1.75 13.28125 4.203125q5.515625 2.453125 8.984375 5.671875q3.484375 3.203125 5.0625 7.171875q1.59375 3.953125 1.59375 8.640625q0 8.15625 -4.421875 14.28125q-4.40625 6.109375 -12.234375 10.15625q-7.8125 4.03125 -18.46875 6.03125q-10.640625 2.0 -23.015625 2.0q-8.3125 0 -15.265625 -0.71875q-6.9375 -0.71875 -12.796875 -1.859375q-5.84375 -1.125 -10.765625 -2.515625q-4.90625 -1.40625 -9.125 -2.84375l0 -24.84375q4.671875 2.5 10.515625 4.46875q5.859375 1.953125 12.09375 3.359375q6.234375 1.390625 12.578125 2.109375q6.34375 0.71875 12.0 0.71875q10.28125 0 16.390625 -1.25q6.125 -1.25 9.28125 -3.171875q3.171875 -1.921875 4.109375 -4.109375q0.953125 -2.203125 0.953125 -4.15625q0 -3.328125 -2.15625 -5.734375q-2.140625 -2.421875 -7.546875 -4.0q-5.390625 -1.59375 -14.609375 -2.390625q-9.21875 -0.796875 -23.25 -0.859375l0 -20.546875q12.75 0 21.171875 -0.53125q8.421875 -0.53125 13.484375 -1.65625q5.0625 -1.140625 7.125 -2.953125q2.078125 -1.8125 2.078125 -4.453125q0 -0.828125 -0.265625 -1.8125q-0.25 -0.984375 -1.15625 -2.03125q-0.90625 -1.0625 -2.65625 -2.046875q-1.734375 -0.984375 -4.75 -1.734375q-3.015625 -0.75 -7.484375 -1.203125q-4.453125 -0.453125 -10.71875 -0.453125q-5.890625 0 -11.96875 0.609375q-6.078125 0.59375 -11.890625 1.8125q-5.8125 1.203125 -11.25 2.9375q-5.4375 1.734375 -10.046875 4.078125l0 -24.765625q10.265625 -3.40625 21.96875 -5.03125q11.71875 -1.625 23.1875 -1.625q11.25 0 21.25 1.515625q10.015625 1.515625 17.53125 4.796875q7.515625 3.28125 11.890625 8.53125q4.390625 5.25 4.390625 12.71875q0 4.0 -1.40625 7.59375q-1.390625 3.59375 -4.421875 6.609375q-3.015625 3.015625 -7.78125 5.359375q-4.75 2.34375 -11.46875 3.921875z" fill-rule="nonzero"/><path fill="#bf9000" d="m201.30423 113.886246l40.3125 43.59375l-27.515625 0l-26.59375 -28.640625l-26.46875 28.640625l-27.453125 0l40.25 -43.59375l-38.28125 -41.375l27.53125 0l24.421875 26.59375l24.546875 -26.59375l27.53125 0l-38.28125 41.375z" fill-rule="nonzero"/><path fill="#bf9000" d="m364.78333 116.77687l0 29.75l-22.125 0l0 -29.75l-29.671875 0l0 -22.046875l29.671875 0l0 -29.75l22.125 0l0 29.75l29.671875 0l0 22.046875l-29.671875 0zm128.60364 40.703125l0 -83.0625l-27.859375 8.671875l0 -20.765625l27.859375 -8.609375l27.859375 0l0 103.765625l-27.859375 0z" fill-rule="nonzero"/></g></svg>