<svg version="1.1" viewBox="0.0 0.0 386.4173228346457 187.61417322834646" fill="none" stroke="none" stroke-linecap="square" stroke-miterlimit="10" xmlns:xlink="http://www.w3.org/1999/xlink" xmlns="http://www.w3.org/2000/svg"><clipPath id="p.0"><path d="m0 0l386.41733 0l0 187.61417l-386.41733 0l0 -187.61417z" clip-rule="nonzero"/></clipPath><g clip-path="url(#p.0)"><path fill="#000000" fill-opacity="0.0" d="m0 0l386.41733 0l0 187.61417l-386.41733 0z" fill-rule="evenodd"/><path fill="#f1c232" d="m-0.001312336 102.41497l382.99213 0l0 85.196846l-382.99213 0z" fill-rule="evenodd"/><path stroke="#e69138" stroke-width="4.0" stroke-linejoin="round" stroke-linecap="butt" d="m-0.001312336 102.41497l382.99213 0l0 85.196846l-382.99213 0z" fill-rule="evenodd"/><path fill="#e69138" d="m127.13511 67.12888l103.31519 0l0 0c13.534561 0 24.5065 16.954094 24.5065 37.868034c0 20.913933 -10.971939 37.868027 -24.5065 37.868027l-103.31519 0l0 0c-13.534569 0 -24.5065 -16.954094 -24.5065 -37.868027c0 -20.91394 10.971931 -37.868034 24.5065 -37.868034z" fill-rule="evenodd"/><path stroke="#e69138" stroke-width="1.0" stroke-linejoin="round" stroke-linecap="butt" d="m127.13511 67.12888l103.31519 0l0 0c13.534561 0 24.5065 16.954094 24.5065 37.868034c0 20.913933 -10.971939 37.868027 -24.5065 37.868027l-103.31519 0l0 0c-13.534569 0 -24.5065 -16.954094 -24.5065 -37.868027c0 -20.91394 10.971931 -37.868034 24.5065 -37.868034z" fill-rule="evenodd"/><path fill="#f1c232" d="m-0.001312336 103.275314l25.818897 -103.27559l331.3543 0l25.818909 103.27559z" fill-rule="evenodd"/><path stroke="#e69138" stroke-width="4.0" stroke-linejoin="round" stroke-linecap="butt" d="m-0.001312336 103.275314l25.818897 -103.27559l331.3543 0l25.818909 103.27559z" fill-rule="evenodd"/></g></svg>
