<svg version="1.1" viewBox="0.0 0.0 1047.6561679790027 188.43832020997377" fill="none" stroke="none" stroke-linecap="square" stroke-miterlimit="10" xmlns:xlink="http://www.w3.org/1999/xlink" xmlns="http://www.w3.org/2000/svg"><clipPath id="p.0"><path d="m0 0l1047.6561 0l0 188.43832l-1047.6561 0l0 -188.43832z" clip-rule="nonzero"/></clipPath><g clip-path="url(#p.0)"><path fill="#000000" fill-opacity="0.0" d="m0 0l1047.6561 0l0 188.43832l-1047.6561 0z" fill-rule="evenodd"/><path fill="#000000" fill-opacity="0.0" d="m0 0l1067.3386 0l0 206.83464l-1067.3386 0z" fill-rule="evenodd"/><path fill="#bf9000" d="m92.0625 51.073746q15.265625 0 28.359375 2.609375q13.109375 2.609375 24.046875 6.6875l0 25.375q-4.296875 -2.421875 -9.703125 -4.6875q-5.390625 -2.265625 -11.734375 -4.0q-6.34375 -1.734375 -13.59375 -2.796875q-7.25 -1.0625 -15.25 -1.0625q-9.96875 0 -17.375 1.4375q-7.40625 1.4375 -12.6875 3.859375q-5.28125 2.40625 -8.6875 5.625q-3.390625 3.203125 -5.359375 6.828125q-1.96875 3.625 -2.71875 7.40625q-0.75 3.765625 -0.75 7.328125q0 3.09375 0.640625 6.71875q0.640625 3.625 2.40625 7.25q1.78125 3.625 4.953125 6.953125q3.171875 3.3125 8.265625 5.890625q5.109375 2.5625 12.28125 4.109375q7.171875 1.546875 17.0625 1.546875q4.984375 0 8.6875 -0.296875q3.703125 -0.3125 6.75 -0.84375q3.0625 -0.53125 5.734375 -1.28125q2.6875 -0.75 5.5625 -1.578125l0 -12.546875l-31.421875 0l0 -22.71875l59.4375 0l0 53.0q-5.59375 1.890625 -12.5 3.4375q-6.90625 1.546875 -14.28125 2.640625q-7.359375 1.09375 -14.765625 1.703125q-7.390625 0.609375 -13.953125 0.609375q-10.203125 0 -19.5625 -1.359375q-9.359375 -1.359375 -17.484375 -4.1875q-8.109375 -2.84375 -14.796875 -7.21875q-6.6875 -4.375 -11.40625 -10.421875q-4.71875 -6.046875 -7.328125 -13.859375q-2.609375 -7.8125 -2.609375 -17.546875q0 -9.671875 2.71875 -17.515625q2.71875 -7.859375 7.59375 -13.90625q4.875 -6.046875 11.703125 -10.421875q6.84375 -4.375 15.03125 -7.203125q8.1875 -2.84375 17.515625 -4.203125q9.328125 -1.359375 19.21875 -1.359375zm219.29968 54.609375q0 13.359375 -4.90625 23.59375q-4.90625 10.234375 -14.046875 17.109375q-9.140625 6.859375 -22.171875 10.375q-13.015625 3.515625 -29.250015 3.515625q-16.234375 0 -29.34375 -3.515625q-13.09375 -3.515625 -22.3125 -10.375q-9.21875 -6.875 -14.203125 -17.109375q-4.984375 -10.234375 -4.984375 -23.59375q0 -13.375 4.984375 -23.609375q4.984375 -10.234375 14.203125 -17.09375q9.21875 -6.875 22.3125 -10.390625q13.109375 -3.515625 29.34375 -3.515625q16.23439 0 29.250015 3.515625q13.03125 3.515625 22.171875 10.390625q9.140625 6.859375 14.046875 17.09375q4.90625 10.234375 4.90625 23.609375zm-28.3125 0q0 -5.828125 -1.859375 -11.59375q-1.84375 -5.78125 -6.5625 -10.390625q-4.71875 -4.609375 -12.875 -7.46875q-8.156265 -2.875 -20.76564 -2.875q-8.453125 0 -14.875 1.328125q-6.421875 1.3125 -11.109375 3.65625q-4.671875 2.34375 -7.84375 5.484375q-3.171875 3.125 -5.0625 6.71875q-1.890625 3.578125 -2.6875 7.46875q-0.78125 3.890625 -0.78125 7.671875q0 3.84375 0.78125 7.78125q0.796875 3.921875 2.6875 7.515625q1.890625 3.578125 5.0625 6.671875q3.171875 3.09375 7.84375 5.40625q4.6875 2.296875 11.109375 3.625q6.421875 1.3125 14.875 1.3125q12.609375 0 20.76564 -2.859375q8.15625 -2.875 12.875 -7.484375q4.71875 -4.609375 6.5625 -10.375q1.859375 -5.78125 1.859375 -11.59375zm177.0882 11.921875q0 10.125 -4.984375 18.0625q-4.984375 7.921875 -14.171875 13.40625q-9.171875 5.46875 -22.203125 8.34375q-13.015625 2.859375 -29.171875 2.859375q-7.109375 0 -14.921875 -0.578125q-7.8125 -0.5625 -15.25 -1.578125q-7.4375 -1.015625 -13.9375 -2.328125q-6.5 -1.328125 -10.953125 -2.921875l0 -24.609375q4.84375 2.03125 10.765625 3.84375q5.921875 1.8125 12.875 3.21875q6.953125 1.390625 14.90625 2.1875q7.96875 0.78125 16.890625 0.78125q8.375 0 14.75 -0.96875q6.390625 -0.984375 11.0625 -2.640625q4.6875 -1.671875 7.78125 -3.8125q3.109375 -2.15625 4.984375 -4.453125q1.890625 -2.3125 2.6875 -4.578125q0.796875 -2.265625 0.796875 -4.234375l0 -9.140625q-7.703125 5.671875 -18.359375 9.34375q-10.640625 3.65625 -24.234375 3.65625q-15.78125 0 -26.328125 -3.0625q-10.53125 -3.0625 -16.875 -8.828125q-6.34375 -5.78125 -9.03125 -14.09375q-2.671875 -8.3125 -2.671875 -18.71875l0 -23.046875l28.171875 0l0 20.25q0 6.109375 1.625 10.875q1.625 4.75 5.125 7.96875q3.515625 3.203125 9.109375 4.875q5.59375 1.65625 13.515625 1.65625q6.71875 0 12.71875 -1.65625q6.015625 -1.671875 11.0625 -4.390625q5.0625 -2.71875 9.140625 -6.1875q4.078125 -3.484375 7.03125 -7.109375l0 -26.28125l28.09375 0l0 63.890625zm120.447815 39.875l0 -10.1875q-5.375 2.9375 -11.53125 5.203125q-6.140625 2.265625 -12.796875 3.859375q-6.640625 1.578125 -13.703125 2.359375q-7.0625 0.796875 -14.234375 0.796875q-8.375 0 -16.203125 -1.578125q-7.8124695 -1.578125 -13.8593445 -5.125q-6.03125 -3.5625 -9.703125 -9.296875q-3.65625 -5.734375 -3.65625 -14.046875q0 -10.5 5.734375 -17.484375q5.75 -6.984375 17.53125 -11.4375q11.7812195 -4.453125 29.78122 -6.875q18.015625 -2.421875 42.640625 -3.78125l0 -2.1875q0 -2.5625 -1.359375 -5.09375q-1.359375 -2.53125 -4.953125 -4.453125q-3.59375 -1.921875 -9.828125 -3.125q-6.21875 -1.21875 -15.890625 -1.21875q-7.625 0 -15.0625 0.796875q-7.4375 0.796875 -14.34375 2.15625q-6.90625 1.359375 -13.1093445 3.171875q-6.1875 1.796875 -11.25 3.765625l0 -24.921875q5.296875 -1.359375 11.859375 -2.640625q6.5780945 -1.28125 13.6718445 -2.21875q7.09375 -0.953125 14.34375 -1.515625q7.25 -0.5625 13.890625 -0.5625q13.0625 0 24.09375 2.15625q11.03125 2.140625 18.984375 6.671875q7.96875 4.53125 12.46875 11.484375q4.5 6.9375 4.5 16.53125l0 68.796875l-28.015625 0zm0 -47.34375q-16.171875 0.59375 -27.46875 1.734375q-11.28125 1.125 -18.765625 2.640625q-7.46875 1.515625 -11.734375 3.25q-4.265625 1.734375 -6.375 3.546875q-2.109375 1.8125 -2.609375 3.625q-0.484375 1.8125 -0.484375 3.328125q0 1.8125 0.96875 3.515625q0.984375 1.6875 3.4375 2.96875q2.453125 1.28125 6.53125 2.046875q4.078125 0.75 10.28125 0.75q6.875 0 13.4375 -1.046875q6.5625 -1.0625 12.453125 -2.90625q5.890625 -1.859375 11.0625 -4.390625q5.1875 -2.53125 9.265625 -5.40625l0 -13.65625zm148.01086 47.34375l0 -10.1875q-5.375 2.9375 -11.53125 5.203125q-6.140625 2.265625 -12.796875 3.859375q-6.640625 1.578125 -13.703125 2.359375q-7.0625 0.796875 -14.234375 0.796875q-8.375 0 -16.203125 -1.578125q-7.8125 -1.578125 -13.859375 -5.125q-6.03125 -3.5625 -9.703125 -9.296875q-3.65625 -5.734375 -3.65625 -14.046875q0 -10.5 5.734375 -17.484375q5.75 -6.984375 17.53125 -11.4375q11.78125 -4.453125 29.78125 -6.875q18.015625 -2.421875 42.640625 -3.78125l0 -2.1875q0 -2.5625 -1.359375 -5.09375q-1.359375 -2.53125 -4.953125 -4.453125q-3.59375 -1.921875 -9.828125 -3.125q-6.21875 -1.21875 -15.890625 -1.21875q-7.625 0 -15.0625 0.796875q-7.4375 0.796875 -14.34375 2.15625q-6.90625 1.359375 -13.109375 3.171875q-6.1875 1.796875 -11.25 3.765625l0 -24.921875q5.296875 -1.359375 11.859375 -2.640625q6.578125 -1.28125 13.671875 -2.21875q7.09375 -0.953125 14.34375 -1.515625q7.25 -0.5625 13.890625 -0.5625q13.0625 0 24.09375 2.15625q11.03125 2.140625 18.984375 6.671875q7.96875 4.53125 12.46875 11.484375q4.5 6.9375 4.5 16.53125l0 68.796875l-28.015625 0zm0 -47.34375q-16.171875 0.59375 -27.46875 1.734375q-11.28125 1.125 -18.765625 2.640625q-7.46875 1.515625 -11.734375 3.25q-4.265625 1.734375 -6.375 3.546875q-2.109375 1.8125 -2.609375 3.625q-0.484375 1.8125 -0.484375 3.328125q0 1.8125 0.96875 3.515625q0.984375 1.6875 3.4375 2.96875q2.453125 1.28125 6.53125 2.046875q4.078125 0.75 10.28125 0.75q6.875 0 13.4375 -1.046875q6.5625 -1.0625 12.453125 -2.90625q5.890625 -1.859375 11.0625 -4.390625q5.1875 -2.53125 9.265625 -5.40625l0 -13.65625zm88.042114 2.9375q0 6.5 1.203125 10.625q1.21875 4.109375 3.9375 6.53125q2.71875 2.40625 7.0625 3.3125q4.34375 0.90625 10.6875 0.90625l53.15625 0l0 23.03125l-58.90625 0q-12.234375 0 -20.8125 -2.0q-8.5625 -2.0 -14.0 -6.1875q-5.4375 -4.203125 -7.890625 -10.609375q-2.453125 -6.421875 -2.453125 -15.265625l0 -69.703125l28.015625 0l0 59.359375zm186.45764 44.40625l0 -10.1875q-5.375 2.9375 -11.53125 5.203125q-6.140625 2.265625 -12.796875 3.859375q-6.640625 1.578125 -13.703125 2.359375q-7.0625 0.796875 -14.234375 0.796875q-8.375 0 -16.203125 -1.578125q-7.8125 -1.578125 -13.859375 -5.125q-6.03125 -3.5625 -9.703125 -9.296875q-3.65625 -5.734375 -3.65625 -14.046875q0 -10.5 5.734375 -17.484375q5.75 -6.984375 17.53125 -11.4375q11.78125 -4.453125 29.78125 -6.875q18.015625 -2.421875 42.640625 -3.78125l0 -2.1875q0 -2.5625 -1.359375 -5.09375q-1.359375 -2.53125 -4.953125 -4.453125q-3.59375 -1.921875 -9.828125 -3.125q-6.21875 -1.21875 -15.890625 -1.21875q-7.625 0 -15.0625 0.796875q-7.4375 0.796875 -14.34375 2.15625q-6.90625 1.359375 -13.109375 3.171875q-6.1875 1.796875 -11.25 3.765625l0 -24.921875q5.296875 -1.359375 11.859375 -2.640625q6.578125 -1.28125 13.671875 -2.21875q7.09375 -0.953125 14.34375 -1.515625q7.25 -0.5625 13.890625 -0.5625q13.0625 0 24.09375 2.15625q11.03125 2.140625 18.984375 6.671875q7.96875 4.53125 12.46875 11.484375q4.5 6.9375 4.5 16.53125l0 68.796875l-28.015625 0zm0 -47.34375q-16.171875 0.59375 -27.46875 1.734375q-11.28125 1.125 -18.765625 2.640625q-7.46875 1.515625 -11.734375 3.25q-4.265625 1.734375 -6.375 3.546875q-2.109375 1.8125 -2.609375 3.625q-0.484375 1.8125 -0.484375 3.328125q0 1.8125 0.96875 3.515625q0.984375 1.6875 3.4375 2.96875q2.453125 1.28125 6.53125 2.046875q4.078125 0.75 10.28125 0.75q6.875 0 13.4375 -1.046875q6.5625 -1.0625 12.453125 -2.90625q5.890625 -1.859375 11.0625 -4.390625q5.1875 -2.53125 9.265625 -5.40625l0 -13.65625z" fill-rule="nonzero"/></g></svg>
