<svg version="1.1" viewBox="0.0 0.0 444.5223097112861 395.0236220472441" fill="none" stroke="none" stroke-linecap="square" stroke-miterlimit="10" xmlns:xlink="http://www.w3.org/1999/xlink" xmlns="http://www.w3.org/2000/svg"><clipPath id="p.0"><path d="m0 0l444.5223 0l0 395.02362l-444.5223 0l0 -395.02362z" clip-rule="nonzero"/></clipPath><g clip-path="url(#p.0)"><path fill="#000000" fill-opacity="0.0" d="m0 0l444.5223 0l0 395.02362l-444.5223 0z" fill-rule="evenodd"/><path fill="#ffd966" d="m26.911549 78.30177l336.34497 0l0 240.04301c-168.16344 0 -168.16344 92.356415 -336.34497 46.178192zm27.710705 0l0 -31.120094l334.04782 0l0 241.54883c-12.697723 0 -25.413544 1.6731262 -25.413544 1.6731262l0 -212.10185zm26.046616 -31.120094l0 -30.367191l336.9419 0l0 240.79593c-14.470337 0 -28.940674 1.2548218 -28.940674 1.2548218l0 -211.68356z" fill-rule="evenodd"/><path fill="#000000" fill-opacity="0.0" d="m26.911549 78.30177l336.34497 0l0 240.04301c-168.16344 0 -168.16344 92.356415 -336.34497 46.178192zm27.710705 0l0 -31.120094l334.04782 0l0 241.54883c-12.697723 0 -25.413544 1.6731262 -25.413544 1.6731262m-282.58765 -243.22195l0 -30.367191l336.9419 0l0 240.79593c-14.470337 0 -28.940674 1.2548218 -28.940674 1.2548218" fill-rule="evenodd"/><path fill="#000000" fill-opacity="0.0" d="m26.911549 364.52298c168.18155 46.178223 168.18155 -46.178192 336.34497 -46.178192l0 -27.941162c0 0 12.71582 -1.6731262 25.413544 -1.6731262l0 -29.865265c0 0 14.470337 -1.2548218 28.940674 -1.2548218l0 -240.79593l-336.9419 0l0 30.367191l-26.046616 0l0 31.120094l-27.710705 0z" fill-rule="evenodd"/><path stroke="#7f6000" stroke-width="8.0" stroke-linejoin="round" stroke-linecap="butt" d="m26.911549 78.30177l336.34497 0l0 240.04301c-168.16344 0 -168.16344 92.356415 -336.34497 46.178192zm27.710705 0l0 -31.120094l334.04782 0l0 241.54883c-12.697723 0 -25.413544 1.6731262 -25.413544 1.6731262m-282.58765 -243.22195l0 -30.367191l336.9419 0l0 240.79593c-14.470337 0 -28.940674 1.2548218 -28.940674 1.2548218" fill-rule="evenodd"/></g></svg>
